<svg width="25" height="25" viewBox="0 0 25 25" fill="none" xmlns="http://www.w3.org/2000/svg">
<rect width="24" height="24" transform="translate(0.5 0.5)" fill="white"/>
<path d="M2.73064 2.92222C2.42312 3.52222 2.42312 21.4778 2.73064 22.0778C2.9503 22.4556 3.21389 22.5 5.27869 22.5H7.60708L8.09034 21.1667H22.5V20.5C22.5 20.0556 22.3902 19.8333 22.1705 19.8333C21.885 19.8333 21.841 18.8778 21.841 12.5C21.841 6.12222 21.885 5.16667 22.1705 5.16667C22.3902 5.16667 22.5 4.94444 22.5 4.5V3.83333H9.40829L8.92504 2.5H5.93767C3.21389 2.5 2.9503 2.54444 2.73064 2.92222ZM7.78281 6.1C7.78281 7.94444 7.69495 8.54444 7.32153 9.32222C6.81631 10.3667 5.89374 11.1889 4.77348 11.5667L4.0486 11.8111V3.83333H7.78281V6.1ZM20.3034 13.1667H19.7103C19.3589 13.1667 18.7658 13.3667 18.3704 13.6111C17.4698 14.1667 16.7669 14.1667 15.8663 13.6111C14.9437 13.0556 14.0211 13.0556 13.0986 13.6111C12.198 14.1667 11.4951 14.1667 10.5945 13.6111C9.69385 13.0556 8.74931 13.0556 7.89264 13.5667L7.23366 13.9667L6.50879 13.2333C6.1134 12.8333 5.87177 12.5 5.9816 12.5C6.09143 12.5 6.61862 12.1 7.16777 11.6111C8.41982 10.5 9.10077 8.94444 9.25453 6.81111L9.38633 5.16667H20.3034V13.1667ZM5.23476 13.8556C6.28913 14.7 6.46485 15.3444 6.46485 18.3889V21.1667H4.0486V17.2778C4.0486 13.0333 4.09253 12.9444 5.23476 13.8556ZM10.4846 15.0556C11.6708 15.6556 12.5275 15.6111 13.5379 14.9222C14.2847 14.3889 14.4824 14.3889 15.7565 15.0556C16.9426 15.6556 17.7993 15.6111 18.8097 14.9222C19.1172 14.6778 19.6005 14.5 19.8421 14.5C20.2375 14.5 20.3034 14.6333 20.3034 15.5C20.3034 16.4333 20.2595 16.5 19.7103 16.5C19.3589 16.5 18.7658 16.7 18.3704 16.9444C17.4698 17.5 16.7669 17.5 15.8663 16.9444C14.9437 16.3889 14.0211 16.3889 13.0986 16.9444C12.176 17.5222 11.517 17.5 10.5286 16.9222C9.95744 16.5667 9.51812 16.4778 8.88111 16.5667C8.00247 16.6778 7.78281 16.5 7.78281 15.6111C7.78281 15.1889 8.57359 14.5222 9.10077 14.5222C9.2765 14.5 9.91351 14.7444 10.4846 15.0556ZM10.4846 18.3889C11.6708 18.9889 12.5275 18.9444 13.5379 18.2556C14.2847 17.7222 14.4824 17.7222 15.7565 18.3889C16.9426 18.9889 17.7993 18.9444 18.8097 18.2556C19.1172 18.0111 19.6005 17.8333 19.8421 17.8333C20.2375 17.8333 20.3034 17.9667 20.3034 18.8333V19.8333H8.00247V19.1444C8.00247 18.4333 8.48572 17.8556 9.10077 17.8333C9.2765 17.8333 9.91351 18.0778 10.4846 18.3889Z" fill="#0A0A0A"/>
<path d="M15.449 7.5C13.9773 8.3 14.3287 10.6333 15.9542 11.0333C18.1508 11.5889 19.4248 8.54444 17.4259 7.5C16.6571 7.1 16.1958 7.1 15.449 7.5ZM16.8987 9.16667C16.8987 9.81111 16.1958 10.0778 15.9981 9.52222C15.8004 8.98889 16.086 8.45556 16.5034 8.54444C16.767 8.58889 16.8987 8.81111 16.8987 9.16667Z" fill="#0A0A0A"/>
</svg>
