<svg width="25" height="25" viewBox="0 0 25 25" fill="none" xmlns="http://www.w3.org/2000/svg">
<path d="M13.75 2.50003C14.0571 2.49781 14.3543 2.60873 14.5848 2.81161C14.8154 3.01449 14.9631 3.29514 15 3.60003V10H21.25C21.5571 9.99779 21.8542 10.1087 22.0848 10.3116C22.3153 10.5145 22.4631 10.7951 22.5 11.1V21.25C22.5022 21.5571 22.3913 21.8542 22.1884 22.0848C21.9855 22.3153 21.7049 22.4631 21.4 22.5H11.25C10.9429 22.5022 10.6457 22.3913 10.4152 22.1884C10.1846 21.9855 10.0369 21.7049 10 21.4V15H3.75003C3.44293 15.0022 3.14577 14.8913 2.91522 14.6884C2.68467 14.4855 2.53688 14.2049 2.50003 13.9V3.75003C2.49781 3.44293 2.60873 3.14577 2.81161 2.91522C3.01449 2.68467 3.29514 2.53688 3.60003 2.50003H13.75ZM15.9125 11.25L14.1625 11.875L14.4625 12.1375L14.625 12.3C14.775 12.4625 14.9125 12.6125 15 12.75L15.1 12.875L15.1625 12.9625L15.2125 13.0625H11.6375V14.6875H13.1375L13.35 15.35L13.475 15.675L13.6 16.05C13.9399 16.8604 14.4131 17.6083 15 18.2625C14.375 18.6625 13.6 19.025 12.6625 19.35L12.25 19.4875L11.8125 19.625L11.2625 19.8L12.1625 21.2375L12.6625 21.075L13.1625 20.925C14.4125 20.4875 15.45 19.975 16.2625 19.4C16.975 19.9 17.8625 20.3625 18.9125 20.75L19.375 20.925L19.85 21.075L20.3625 21.2375L21.2625 19.8L20.7 19.625L20.375 19.525L19.95 19.3875C19.1008 19.1077 18.287 18.7302 17.525 18.2625C18.0816 17.6302 18.5332 16.9128 18.8625 16.1375L19.025 15.75L19.1625 15.3375L19.375 14.6875H20.875V13.0625H17.0625L16.9375 12.775C16.7654 12.3603 16.5338 11.9729 16.25 11.625L16.1 11.4375L15.925 11.25H15.9125ZM17.6 14.7L17.55 14.8625L17.45 15.1375L17.325 15.475C17.0634 16.1049 16.7002 16.6876 16.25 17.2C15.8786 16.7736 15.5673 16.2984 15.325 15.7875L15.175 15.475L15.05 15.1375L14.95 14.8625L14.9 14.7H17.6ZM13.75 3.75003H3.75003V13.75H10V11.25L10.0125 11.0375H7.28752L6.78752 12.5H5.00002L7.82502 5.00002H9.67501L11.55 10H13.75V3.75003ZM8.75001 6.76252L7.81252 9.50001H9.68751L8.75001 6.76252Z" fill="#0A0A0A"/>
</svg>
