<svg width="25" height="25" viewBox="0 0 25 25" fill="none" xmlns="http://www.w3.org/2000/svg">
<rect width="24" height="24" transform="translate(0.5 0.5)" fill="white"/>
<path d="M19.85 2.5C20.3651 2.5018 20.8622 2.68905 21.2505 3.02748C21.6388 3.36591 21.8922 3.83286 21.9643 4.34286C22.3214 6.88571 22.5 9.60714 22.5 12.5C22.5 15.3929 22.3214 18.1143 21.9643 20.6571C21.8944 21.1459 21.6579 21.5955 21.2948 21.9299C20.9317 22.2644 20.4642 22.4633 19.9714 22.4929L19.85 22.5H5.14286C4.6278 22.4982 4.13061 22.311 3.74234 21.9725C3.35406 21.6341 3.10068 21.1671 3.02857 20.6571C2.67857 18.1143 2.5 15.3929 2.5 12.5C2.5 9.60714 2.67857 6.88571 3.03571 4.34286C3.10559 3.85414 3.34207 3.40454 3.70519 3.07005C4.0683 2.73557 4.53577 2.53673 5.02857 2.50714L5.14286 2.5H19.85ZM19.85 3.92857H5.15714C4.98382 3.92687 4.81579 3.98824 4.68437 4.10126C4.55295 4.21428 4.46712 4.37123 4.44286 4.54286C4.08773 7.18016 3.91589 9.83892 3.92857 12.5C3.92857 15.3286 4.1 17.9786 4.45 20.4571C4.47243 20.6126 4.54546 20.7563 4.6578 20.8661C4.77013 20.9758 4.91551 21.0455 5.07143 21.0643L5.15 21.0714H19.8429C20.0162 21.0731 20.1842 21.0118 20.3156 20.8987C20.447 20.7857 20.5329 20.6288 20.5571 20.4571C20.9 17.9786 21.0714 15.3286 21.0714 12.5C21.0714 9.67143 20.9 7.02143 20.55 4.54286C20.5263 4.37486 20.4435 4.22079 20.3166 4.10824C20.1896 3.99569 20.0268 3.932 19.8571 3.92857H19.85ZM12.5 6.07143C14.205 6.07143 15.8401 6.74872 17.0457 7.95431C18.2513 9.1599 18.9286 10.795 18.9286 12.5C18.9286 14.205 18.2513 15.8401 17.0457 17.0457C15.8401 18.2513 14.205 18.9286 12.5 18.9286C10.795 18.9286 9.1599 18.2513 7.95431 17.0457C6.74872 15.8401 6.07143 14.205 6.07143 12.5C6.07143 10.795 6.74872 9.1599 7.95431 7.95431C9.1599 6.74872 10.795 6.07143 12.5 6.07143ZM8.32857 11.4286C8.08571 11.4286 7.84286 11.4429 7.6 11.4786C7.35453 12.6652 7.54837 13.9007 8.14548 14.9551C8.74258 16.0096 9.70231 16.8113 10.8462 17.2113C11.9901 17.6112 13.2403 17.5821 14.3643 17.1294C15.4884 16.6766 16.4098 15.8311 16.9571 14.75C16.0633 14.8235 15.1638 14.7111 14.3156 14.4197C13.4673 14.1284 12.6886 13.6644 12.0286 13.0571L11.8643 12.8929C11.4007 12.4276 10.8496 12.0587 10.2427 11.8074C9.63592 11.5561 8.98537 11.4274 8.32857 11.4286ZM12.5 7.5C11.6214 7.49902 10.758 7.72958 9.99683 8.16848C9.23567 8.60737 8.6036 9.23908 8.16429 10H8.32857C9.94286 10 11.5 10.6 12.7 11.7143L12.8714 11.8857C13.4594 12.4758 14.1858 12.9092 14.9844 13.1463C15.7829 13.3833 16.6282 13.4165 17.4429 13.2429C17.5497 12.5316 17.5019 11.8056 17.3026 11.1145C17.1032 10.4234 16.7572 9.78344 16.288 9.23829C15.8188 8.69314 15.2375 8.25564 14.5837 7.95565C13.93 7.65566 13.2193 7.50024 12.5 7.5ZM6.07143 5.35714C6.26087 5.35714 6.44255 5.4324 6.5765 5.56635C6.71046 5.70031 6.78571 5.88199 6.78571 6.07143C6.78571 6.26087 6.71046 6.44255 6.5765 6.5765C6.44255 6.71046 6.26087 6.78571 6.07143 6.78571C5.88199 6.78571 5.70031 6.71046 5.56635 6.5765C5.4324 6.44255 5.35714 6.26087 5.35714 6.07143C5.35714 5.88199 5.4324 5.70031 5.56635 5.56635C5.70031 5.4324 5.88199 5.35714 6.07143 5.35714Z" fill="#0A0A0A"/>
</svg>
