<svg width="25" height="25" viewBox="0 0 25 25" fill="none" xmlns="http://www.w3.org/2000/svg">
<rect width="24" height="24" transform="translate(0.5 0.5)" fill="white"/>
<path d="M11.9785 3.81162C11.8222 3.96743 11.152 5.19165 10.4818 6.54943L9.29789 8.97562L7.35444 9.50983C4.22704 10.3557 4.62913 9.73241 3.44518 15.6755C2.86438 18.5468 2.43995 21.0398 2.50696 21.2179C2.61866 21.485 4.16002 21.5295 12.5147 21.485L22.4106 21.4182L22.4553 17.9681L22.5 14.518L20.3332 10.1998L18.1663 5.88167L15.3963 4.70197C13.8773 4.03421 12.537 3.5 12.4476 3.5C12.3583 3.5 12.1349 3.63355 11.9785 3.81162ZM15.0613 6.01522C17.2281 6.97234 17.2728 6.9946 17.8536 8.19657L18.4344 9.39853L16.4686 9.46531L14.4804 9.53208V10.1776V10.8453H16.826H19.1716L19.6183 11.7357C19.864 12.2031 20.0651 12.6705 20.0651 12.7373C20.0651 12.8041 19.5736 12.8486 18.9482 12.8486C17.8536 12.8486 17.8312 12.8709 17.8312 13.5164V14.1841H19.2832C20.4672 14.1841 20.7576 14.2509 20.9586 14.607C21.0703 14.8519 21.182 16.2097 21.182 17.612V20.194H18.8365H16.4909V19.1255C16.4909 17.1 15.0836 15.2971 13.2295 14.9409C10.7276 14.4735 8.44903 16.4545 8.44903 19.1255V20.194H6.21517C4.98655 20.194 3.98131 20.1049 3.98131 19.9936C3.98131 19.8823 4.13768 19.0365 4.31639 18.1462C4.89719 15.2748 4.74082 15.5197 5.99178 15.5197C7.08637 15.5197 7.10871 15.4974 7.10871 14.8519C7.10871 14.2064 7.06404 14.1841 6.10348 14.1841C5.16526 14.1841 5.09824 14.1396 5.20993 13.6722C5.27695 13.4051 5.41098 12.7818 5.50033 12.2922L5.67904 11.4018L7.97992 10.734L10.2808 10.0663L11.5541 7.57333C12.2242 6.19329 12.8051 5.0581 12.8274 5.0581C12.8274 5.0581 13.8326 5.48102 15.0613 6.01522ZM14.3241 17.0555C14.8825 17.5897 15.0166 17.9458 15.1059 18.9475L15.1953 20.194H12.47H9.74467L9.83402 18.9697C9.94571 17.701 10.5042 16.8107 11.4647 16.3877C12.2913 16.0316 13.6092 16.321 14.3241 17.0555Z" fill="#0A0A0A"/>
</svg>
