<svg width="25" height="25" viewBox="0 0 25 25" fill="none" xmlns="http://www.w3.org/2000/svg">
<rect width="24" height="24" transform="translate(0.5 0.5)" fill="white"/>
<path d="M12.4683 11.5909C12.0861 14.7727 9.97209 15.8333 9.97198 16.2576C9.97186 16.6818 9.97198 17.9545 9.97198 17.9545M15.0053 12.5C14.6231 15.6818 12.5091 16.7424 12.509 17.1667C12.5089 17.5909 12.509 18.8636 12.509 18.8636M7.55039 20.3182C4.24616 17.0875 4.58382 10.764 11.1679 3.83652C11.8976 3.0687 13.1217 3.06621 13.8515 3.834C20.2344 10.5493 20.8521 17.0647 17.482 20.355C14.8585 22.9164 10.172 22.8814 7.55039 20.3182Z" stroke="#0A0A0A" stroke-width="1.5" stroke-linecap="round"/>
</svg>
