<svg width="25" height="25" viewBox="0 0 25 25" fill="none" xmlns="http://www.w3.org/2000/svg">
<rect width="24" height="24" transform="translate(0.5 0.5)" fill="white"/>
<path d="M3.54167 5.89371C3.16667 6.24359 3.125 6.55459 3.125 9.0426C3.10417 11.1807 3.04167 11.9194 2.8125 12.1915C2.5625 12.5025 2.5 13.2994 2.5 16.0401V19.5H3.125C3.72917 19.5 3.75 19.4611 3.75 18.6253V17.7506H13.75V18.6253C13.75 19.4611 13.7708 19.5 14.375 19.5C14.9792 19.5 15 19.4611 15 18.6253V17.7506H21.25V18.6253C21.25 19.4611 21.2708 19.5 21.875 19.5H22.5V15.9429C22.5 13.4355 22.4167 12.3081 22.25 12.1526C22.1042 12.0165 21.3542 11.9194 20.375 11.9194H18.75V10.17H19.7708C21.2917 10.17 21.3958 9.93672 20.7292 7.99297C19.8542 5.5244 19.8333 5.50496 18.125 5.50496C16.4167 5.50496 16.3958 5.5244 15.5208 7.99297C14.8542 9.93672 14.9583 10.17 16.4792 10.17H17.5V11.9194H14.375V9.10091C14.375 5.2134 14.8333 5.50496 8.75 5.50496C4.22917 5.50496 3.9375 5.5244 3.54167 5.89371ZM13.125 11.3362H12.5C11.875 11.3362 11.875 11.3168 11.875 10.2672C11.875 8.59553 11.5833 8.42059 8.75 8.42059C5.91667 8.42059 5.625 8.59553 5.625 10.2672C5.625 11.3168 5.625 11.3362 5 11.3362H4.375V6.67121H13.125V11.3362ZM19.3333 7.83747L19.7708 9.00372H16.4792L16.9167 7.83747C17.3333 6.69065 17.3333 6.67121 18.125 6.67121C18.9167 6.67121 18.9167 6.69065 19.3333 7.83747ZM10.625 11.3362H6.875V9.58685H10.625V11.3362ZM13.7708 16.5844H3.75V14.6795C3.75 13.6299 3.8125 12.6969 3.89583 12.6191C3.97917 12.5608 6.1875 12.5219 8.83333 12.5414L13.6458 12.5997L13.7708 16.5844ZM21.25 16.5844H15V13.0856H21.25V16.5844Z" fill="#0A0A0A"/>
<path d="M17.708 14.5628C17.4788 14.7961 17.4997 14.9127 17.7705 15.1848C18.1038 15.4764 18.1455 15.4764 18.4788 15.1848C18.7497 14.9127 18.7705 14.7961 18.5413 14.5628C18.3955 14.3879 18.208 14.2518 18.1247 14.2518C18.0413 14.2518 17.8538 14.3879 17.708 14.5628Z" fill="#0A0A0A"/>
</svg>
