<svg width="25" height="25" viewBox="0 0 25 25" fill="none" xmlns="http://www.w3.org/2000/svg">
<rect width="24" height="24" transform="translate(0.5 0.5)" fill="white"/>
<path d="M22.1818 13.4477L22.2545 13.5755C22.4983 14.0479 22.563 14.588 22.4374 15.1017C22.3118 15.6155 22.0039 16.0703 21.5671 16.3872L21.4614 16.4638L13.709 21.4672C13.0166 21.9114 12.1765 22.0871 11.3561 21.9593L11.1843 21.9273L3.54424 20.349C3.26632 20.2907 3.01527 20.1473 2.82834 19.9401C2.64141 19.7329 2.52859 19.4729 2.50661 19.1988L2.50001 19.1029V15.7801C2.49906 15.4571 2.62464 15.1458 2.85147 14.9087C3.0783 14.6716 3.38957 14.5263 3.72268 14.5021H14.5549C15.0043 14.5021 15.3282 14.7066 15.5198 15.0197L19.3993 12.7704C19.8612 12.5035 20.4138 12.4249 20.9356 12.5519C21.4574 12.679 21.9057 13.0012 22.1818 13.4477ZM20.1528 13.8311L20.0801 13.8695L15.6983 16.4127L15.6454 16.6044C15.4858 17.1042 15.1648 17.5413 14.7295 17.8518C14.2942 18.1623 13.7674 18.3298 13.2265 18.3297L13.0745 18.3361H9.76996V17.0581H13.0745C13.3322 17.0581 13.5503 17.0134 13.7354 16.9367V15.7801H3.82182V19.1029L11.4619 20.6813C11.9398 20.7804 12.4388 20.7053 12.863 20.4704L12.9754 20.4065L20.7278 15.4031C21.1243 15.1475 21.2829 14.6555 21.1111 14.2337L21.078 14.1506L21.0516 14.1059C20.9695 13.9727 20.8431 13.8704 20.693 13.8158C20.5428 13.7613 20.378 13.7576 20.2255 13.8056L20.1528 13.8311ZM9.10906 3C10.1258 2.99971 11.121 3.28287 11.9756 3.81554C12.8301 4.34822 13.5077 5.10782 13.9271 6.00332L14.013 6.19503H18.9698L20.9525 8.11204L18.9698 10.0291H16.6566L15.0572 11.5691L13.8411 10.3933L13.775 10.5211C13.3531 11.2845 12.7376 11.9318 11.9862 12.4023C11.2348 12.8728 10.3722 13.1512 9.47916 13.2113L9.2875 13.2241H9.10906C7.70679 13.2241 6.36196 12.6855 5.37041 11.7268C4.37886 10.7681 3.82182 9.46784 3.82182 8.11204C3.82182 6.75624 4.37886 5.45598 5.37041 4.49728C6.36196 3.53859 7.70679 3 9.10906 3ZM9.10906 4.27801C8.38074 4.27868 7.66668 4.47327 7.04521 4.84044C6.42373 5.20761 5.91885 5.73318 5.58593 6.35949C5.25301 6.98579 5.10493 7.68865 5.15791 8.39097C5.2109 9.09329 5.46291 9.76793 5.88631 10.3409C6.3097 10.9139 6.88812 11.363 7.55813 11.6391C8.22813 11.9152 8.96384 12.0075 9.68455 11.906C10.4053 11.8045 11.0831 11.513 11.6438 11.0636C12.2045 10.6141 12.6263 10.0241 12.863 9.3581L12.9093 9.21113L13.048 8.75105H14.0064L15.0572 9.76067L16.108 8.75105H18.4212L19.0821 8.11204L18.4212 7.47304H13.048L12.9159 7.01934C12.6721 6.22653 12.1696 5.5312 11.4835 5.03714C10.7975 4.54309 9.96452 4.27679 9.10906 4.27801ZM7.12634 7.47304C7.30162 7.47304 7.46973 7.54036 7.59367 7.6602C7.71761 7.78003 7.78725 7.94257 7.78725 8.11204C7.78725 8.28152 7.71761 8.44405 7.59367 8.56389C7.46973 8.68372 7.30162 8.75105 7.12634 8.75105C6.95106 8.75105 6.78295 8.68372 6.65901 8.56389C6.53507 8.44405 6.46544 8.28152 6.46544 8.11204C6.46544 7.94257 6.53507 7.78003 6.65901 7.6602C6.78295 7.54036 6.95106 7.47304 7.12634 7.47304Z" fill="#0A0A0A"/>
</svg>
