<svg width="25" height="25" viewBox="0 0 25 25" fill="none" xmlns="http://www.w3.org/2000/svg">
<path fill-rule="evenodd" clip-rule="evenodd" d="M12.4998 2.15039C9.08307 2.15039 6.3498 4.94416 6.3498 8.3861V8.66421C5.30411 8.9906 4.5498 9.98036 4.5498 11.129V20.2718C4.5498 21.6806 5.6845 22.8504 7.0998 22.8504H17.8998C19.3151 22.8504 20.4498 21.6806 20.4498 20.2718V11.129C20.4498 9.98036 19.6955 8.9906 18.6498 8.66421V8.3861C18.6498 4.94416 15.9165 2.15039 12.4998 2.15039ZM7.8498 8.55039V8.3861C7.8498 5.75023 9.93368 3.65039 12.4998 3.65039C15.0659 3.65039 17.1498 5.75023 17.1498 8.3861V8.55039H7.8498Z" fill="#0A0A0A"/>
</svg>
