<svg width="25" height="25" viewBox="0 0 25 25" fill="none" xmlns="http://www.w3.org/2000/svg">
<rect width="24" height="24" transform="translate(0.5 0.5)" fill="white"/>
<path d="M11.7872 14.66L13.2128 15.9933V18.2733L16.7979 20.2067L16.0852 21.36L13.2128 19.8133V22.5H11.7872V19.8133L8.91483 21.36L8.20207 20.2067L11.7872 18.2733V14.66ZM3.73307 3.36667L22.2648 20.7L21.2669 21.6467L2.73521 4.31333L3.73307 3.36667ZM3.21276 12.88L6.79793 14.8067L10.0624 13.0467L11.103 14.02L7.51069 15.9667V19.8333H6.08517V16.7333L3.59765 18.08L2.88489 16.92L5.37242 15.58L2.5 14.0267L3.21276 12.8733V12.88ZM21.7872 12.88L22.5 14.0333L19.6276 15.58L22.1151 16.92L21.4309 18.0267L17.7031 14.54L18.2021 14.8067L21.7872 12.8733V12.88ZM18.9148 5.16667V8.26667L21.4024 6.92L22.1151 8.08L19.6276 9.42L22.5 10.9733L21.7872 12.1267L18.2021 10.1933L14.9376 11.9533L13.897 10.9733L17.4893 9.04V5.16667H18.9148ZM3.56914 6.96667L7.28974 10.46L6.79793 10.1933L3.21276 12.1267L2.5 10.9733L5.37242 9.42L2.88489 8.08L3.56914 6.97333V6.96667ZM13.2128 2.5V5.18667L16.0852 3.64L16.7979 4.79333L13.2128 6.72667V10.34L11.7872 9.00667V6.72667L8.20207 4.79333L8.91483 3.64L11.7872 5.18667V2.5H13.2128Z" fill="#0A0A0A"/>
</svg>
