<svg width="25" height="25" viewBox="0 0 25 25" fill="none" xmlns="http://www.w3.org/2000/svg">
<path d="M13.2643 2.20942L13.3917 2.32328L22.5 12.1577L21.6083 13.1825L20.1433 11.6027V21.2094C20.1458 21.3779 20.0946 21.5419 19.999 21.6723C19.9033 21.8026 19.7694 21.8907 19.621 21.921H15.0478V14.0933C15.0502 13.9248 14.9991 13.7608 14.9034 13.6305C14.8078 13.5002 14.6739 13.412 14.5255 13.3817H10.5892C10.4384 13.379 10.2916 13.4361 10.1749 13.543C10.0583 13.6498 9.97936 13.7995 9.95223 13.9652V21.921H5.49363C5.34281 21.9238 5.19601 21.8667 5.07937 21.7598C4.96273 21.6529 4.88382 21.5033 4.85669 21.3375V11.6027L3.39172 13.1825L2.5 12.1577L11.6083 2.32328C11.8266 2.08642 12.1137 1.94472 12.4174 1.92383C12.7212 1.90295 13.0216 2.00426 13.2643 2.20942Z" fill="#0A0A0A"/>
</svg>
