<svg width="25" height="25" viewBox="0 0 25 25" fill="none" xmlns="http://www.w3.org/2000/svg">
<path d="M12.9996 3L13.2919 3.00259C15.4372 3.04046 17.7107 3.49426 20.1144 4.37103L20.4996 4.515V18.2003L20.4953 18.2653C20.4757 18.415 20.3892 18.5481 20.2604 18.6269L20.2026 18.6572L14.4909 21.1959C14.5221 20.8229 14.4692 20.4487 14.3304 20.0567C14.2057 19.7045 13.9471 19.1664 13.8095 18.8592C12.8548 16.7811 11.83 14.6747 10.7639 12.5986L10.598 12.2801C10.3637 11.8243 10.1856 11.4652 9.9406 11.1775C9.5689 10.7406 9.05717 10.5 8.49953 10.5C7.94179 10.5 7.42997 10.7408 7.05809 11.1779C6.75557 11.5336 6.54277 12.0188 6.23519 12.5985C5.98735 13.0812 5.74176 13.5654 5.49878 14.0506L5.49958 4.5145L5.88412 4.37126C8.28332 3.49608 10.5528 3.04226 12.6945 3.00282L12.9996 3Z" fill="black" fill-opacity="0.2"/>
<path d="M12.9996 1C15.7989 1 18.7583 1.63737 21.877 2.90821C22.2284 3.05142 22.4662 3.37986 22.4963 3.75355L22.4996 3.83427V18.2003C22.4996 19.1502 21.9617 20.0145 21.1177 20.4363L21.0149 20.4848L13.4935 23.8276C13.2628 23.9302 12.5625 23.9915 12.0958 23.9992L11.9996 24L12 23.4998C12.3242 23.4963 12.6422 23.4332 12.9392 23.3124C13.3556 23.1429 13.7121 22.8654 13.9788 22.5181L20.6088 19.571C21.1204 19.3436 21.4602 18.8518 21.4964 18.2985L21.4996 18.2003V3.83427L21.1537 3.69574C18.2779 2.56409 15.5602 2 12.9996 2C10.439 2 7.72131 2.56409 4.84545 3.69574L4.49959 3.83428L4.49944 16.0812C4.1591 16.7851 3.82527 17.4888 3.49902 18.1899L3.49959 3.83428C3.49959 3.42772 3.74571 3.06162 4.12222 2.9082C7.24084 1.63737 10.2003 1 12.9996 1Z" fill="#0A0A0A"/>
<path d="M8.49995 21.3465L8.84332 20.9039C9.64118 19.8875 10.1393 18.9602 10.324 18.148C10.4642 17.532 10.4399 16.8896 10.0837 16.3684C9.74368 15.8708 9.15163 15.5737 8.50005 15.5737C7.84837 15.5737 7.25623 15.8707 6.91627 16.3682C6.56132 16.8878 6.53537 17.5283 6.67577 18.1472C6.86024 18.9596 7.35845 19.887 8.15659 20.9039L8.49995 21.3465ZM8.49995 21.3465L8.82234 21.7061C9.3971 22.3361 9.9091 22.7674 10.4337 23.0636C10.8413 23.2937 11.2538 23.4343 11.6598 23.4816C12.1004 23.5332 12.5391 23.4754 12.9397 23.3124C13.7608 22.9782 14.349 22.2236 14.4747 21.343C14.5349 20.9211 14.4879 20.5003 14.3309 20.0567C14.2061 19.7045 13.9475 19.1664 13.8099 18.8592C12.8552 16.7811 11.8304 14.6747 10.7643 12.5986C10.44 11.9874 10.2404 11.5292 9.94103 11.1775C9.56933 10.7406 9.0576 10.5 8.49995 10.5C7.94222 10.5 7.4304 10.7408 7.05851 11.1779C6.756 11.5336 6.54319 12.0188 6.23562 12.5985C5.16928 14.6752 4.14462 16.7815 3.18997 18.8591C3.04884 19.1744 2.79343 19.7057 2.66913 20.0565C2.51208 20.5001 2.46507 20.9209 2.52533 21.3431C2.65092 22.2236 3.23901 22.9781 4.06016 23.3124C4.46986 23.4791 4.90725 23.5322 5.33995 23.4816C5.74643 23.4342 6.15898 23.2936 6.56619 23.0636C7.0908 22.7675 7.60281 22.3361 8.17757 21.7061L8.49995 21.3465Z" stroke="#0A0A0A"/>
</svg>
