<svg width="25" height="25" viewBox="0 0 25 25" fill="none" xmlns="http://www.w3.org/2000/svg">
<path d="M12.5 20.5C17 17.3478 21.5 13.8358 21.5 9.17084C21.5017 8.55773 21.3864 7.95033 21.1609 7.38356C20.9354 6.81679 20.6039 6.30183 20.1857 5.86829C19.7675 5.43476 19.2708 5.09121 18.7241 4.8574C18.1773 4.62359 17.5914 4.50413 17 4.50589C15.8428 4.50589 14.6986 4.95905 13.8178 5.87205L12.5 7.23821L11.1821 5.87205C10.7651 5.43723 10.2693 5.09216 9.7232 4.85669C9.17709 4.62122 8.59146 4.5 8 4.5C7.40853 4.5 6.8229 4.62122 6.27679 4.85669C5.73068 5.09216 5.23486 5.43723 4.81786 5.87205C4.39944 6.30483 4.06762 6.81904 3.84146 7.38514C3.6153 7.95125 3.49926 8.5581 3.5 9.17084C3.5 13.8358 8 17.3478 12.5 20.5Z" stroke="#0A0A0A" stroke-width="2"/>
</svg>
