<svg width="25" height="25" viewBox="0 0 25 25" fill="none" xmlns="http://www.w3.org/2000/svg">
<path d="M22.5 16.3889H11.7308M11.7308 16.3889C11.7308 17.214 11.4066 18.0053 10.8296 18.5888C10.2525 19.1722 9.4699 19.5 8.65385 19.5C7.8378 19.5 7.05517 19.1722 6.47813 18.5888C5.9011 18.0053 5.57692 17.214 5.57692 16.3889C5.57692 15.5638 5.9011 14.7724 6.47813 14.189C7.05517 13.6056 7.8378 13.2778 8.65385 13.2778C9.4699 13.2778 10.2525 13.6056 10.8296 14.189C11.4066 14.7724 11.7308 15.5638 11.7308 16.3889ZM13.2692 8.61111H2.5M13.2692 8.61111C13.2692 9.43623 13.5934 10.2276 14.1704 10.811C14.7475 11.3944 15.5301 11.7222 16.3462 11.7222C17.1622 11.7222 17.9448 11.3944 18.5219 10.811C19.0989 10.2276 19.4231 9.43623 19.4231 8.61111C19.4231 7.78599 19.0989 6.99467 18.5219 6.41122C17.9448 5.82778 17.1622 5.5 16.3462 5.5C15.5301 5.5 14.7475 5.82778 14.1704 6.41122C13.5934 6.99467 13.2692 7.78599 13.2692 8.61111Z" stroke="#0A0A0A" stroke-width="2"/>
</svg>
