<svg width="25" height="25" viewBox="0 0 25 25" fill="none" xmlns="http://www.w3.org/2000/svg">
<path fill-rule="evenodd" clip-rule="evenodd" d="M11.9294 2.88911L9.3098 8.79166L3.05563 9.63583C2.93464 9.65167 2.82057 9.70373 2.72708 9.78577C2.63359 9.8678 2.56464 9.97634 2.5285 10.0984C2.49236 10.2204 2.49055 10.3508 2.52329 10.4739C2.55604 10.597 2.62194 10.7076 2.71311 10.7924L7.34348 15.1595L6.09391 21.7068C6.07038 21.832 6.08172 21.9616 6.12658 22.0802C6.17144 22.1988 6.24793 22.3014 6.34691 22.3757C6.44589 22.45 6.56318 22.4929 6.68478 22.4992C6.80638 22.5055 6.92715 22.475 7.03267 22.4114L12.5003 19.0879L17.9743 22.4114C18.0798 22.475 18.2006 22.5055 18.3222 22.4992C18.4438 22.4929 18.5611 22.45 18.66 22.3757C18.759 22.3014 18.8355 22.1988 18.8804 22.0802C18.9252 21.9616 18.9366 21.832 18.913 21.7068L17.6635 15.1595L22.2938 10.7924C22.3832 10.7068 22.4473 10.5961 22.4785 10.4735C22.5098 10.3509 22.5069 10.2215 22.4702 10.1006C22.4335 9.97965 22.3645 9.87225 22.2715 9.79107C22.1784 9.7099 22.0651 9.65833 21.945 9.64247L15.6908 8.79166L13.0775 2.88911C13.0271 2.77306 12.9458 2.67467 12.8435 2.60568C12.7411 2.53668 12.622 2.5 12.5003 2.5C12.3786 2.5 12.2595 2.53668 12.1571 2.60568C12.0548 2.67467 11.9736 2.77306 11.9231 2.88911H11.9294Z" fill="#0A0A0A"/>
</svg>
