<svg width="25" height="25" viewBox="0 0 25 25" fill="none" xmlns="http://www.w3.org/2000/svg">
<rect width="24" height="24" transform="translate(0.5 0.5)" fill="white"/>
<path d="M2.53571 5.57143L3.92857 6.95V18.9286C3.92759 19.4753 4.13562 20.0017 4.51008 20.4001C4.88454 20.7985 5.39711 21.0386 5.94286 21.0714H18.0429L19.4357 22.4643C19.3214 22.4786 19.2 22.4929 19.0786 22.4929L18.9286 22.5H6.07143C5.15084 22.5009 4.26545 22.1463 3.60002 21.5101C2.93459 20.874 2.54051 20.0054 2.5 19.0857V6.07143C2.5 5.9 2.51429 5.72857 2.53571 5.57143ZM3.72143 2.71429L22.2929 21.2857L21.2786 22.2857L2.70714 3.71429L3.72143 2.71429ZM18.9286 2.5C19.8492 2.49911 20.7345 2.85374 21.4 3.48989C22.0654 4.12605 22.4595 4.99458 22.5 5.91429V18.9286C22.4998 19.0959 22.4879 19.2629 22.4643 19.4286L21.0714 18.05V6.07143C21.0724 5.5247 20.8644 4.99827 20.4899 4.59991C20.1155 4.20154 19.6029 3.96138 19.0571 3.92857H6.95714L5.57143 2.53572C5.68571 2.52143 5.80714 2.50714 5.92857 2.50714L6.07143 2.5H18.9286ZM9 13.2143C9.13998 13.9006 9.4787 14.5307 9.97401 15.026C10.4693 15.5213 11.0994 15.86 11.7857 16V17.45C10.717 17.296 9.72685 16.8002 8.96334 16.0367C8.19984 15.2732 7.70401 14.283 7.55 13.2143H9ZM13.2143 16.2429L14.1786 17.2143C13.8658 17.3249 13.5428 17.4038 13.2143 17.45V16.2429ZM16.2429 13.2143H17.45C17.4 13.55 17.3214 13.8714 17.2071 14.1786L16.2429 13.2143ZM13.2143 7.55C14.283 7.70401 15.2732 8.19984 16.0367 8.96335C16.8002 9.72685 17.296 10.717 17.45 11.7857H16C15.86 11.0994 15.5213 10.4693 15.026 9.97401C14.5307 9.4787 13.9006 9.13998 13.2143 9V7.55ZM7.78571 10.8214L8.75714 11.7857H7.55C7.6 11.45 7.67857 11.1286 7.78571 10.8214ZM11.7857 7.55V8.75714L10.8214 7.78572C11.1342 7.67512 11.4572 7.59616 11.7857 7.55ZM17.5 6.78572C17.6894 6.78572 17.8711 6.86097 18.0051 6.99493C18.139 7.12888 18.2143 7.31056 18.2143 7.5C18.2143 7.68944 18.139 7.87112 18.0051 8.00508C17.8711 8.13903 17.6894 8.21429 17.5 8.21429C17.3106 8.21429 17.1289 8.13903 16.9949 8.00508C16.861 7.87112 16.7857 7.68944 16.7857 7.5C16.7857 7.31056 16.861 7.12888 16.9949 6.99493C17.1289 6.86097 17.3106 6.78572 17.5 6.78572Z" fill="#0A0A0A"/>
</svg>
