<svg width="25" height="25" viewBox="0 0 25 25" fill="none" xmlns="http://www.w3.org/2000/svg">
<path d="M12.5 1.25C14 1.25 15.095 1.97 16.0625 3.7025L16.46 4.4675C18.3067 8.14276 20.082 11.8535 21.785 15.5975L21.8975 15.86C22.4 17.06 22.5725 17.72 22.6175 18.41V18.7175L22.625 18.89C22.625 21.935 20.465 23.75 17.855 23.75C16.19 23.75 14.4425 22.805 12.83 21.2075L12.635 21.0125L12.5075 20.885H12.4925L12.365 21.02C10.8275 22.595 9.1625 23.585 7.55 23.735L7.34 23.7425L7.145 23.75C4.535 23.75 2.375 21.935 2.375 18.89V18.5375C2.3975 17.84 2.5475 17.21 2.9975 16.1075L3.1625 15.71C3.89 13.985 7.7225 5.975 8.9375 3.6875C9.9125 1.97 11 1.25 12.5 1.25ZM12.5 2.75C11.57 2.75 10.9625 3.155 10.2575 4.4075L9.8675 5.1575C8.0393 8.79827 6.28148 12.474 4.595 16.1825L4.3325 16.8125C4.08825 17.3429 3.93608 17.911 3.8825 18.4925L3.875 18.74V18.89C3.875 21.05 5.3075 22.25 7.145 22.25C8.4725 22.25 10.0475 21.32 11.5175 19.7375C9.7925 17.5325 8.6225 14.9 8.6225 13.055C8.6225 10.865 10.0775 9.0125 12.5075 8.99C14.9225 9.0125 16.3775 10.865 16.3775 13.055C16.3775 14.8925 15.2075 17.525 13.4825 19.73C14.96 21.3275 16.5275 22.25 17.855 22.25C19.6925 22.25 21.125 21.05 21.125 18.89V18.59C21.0747 17.9037 20.8913 17.2337 20.585 16.6175L20.3975 16.1675C19.6025 14.3075 15.905 6.59 14.75 4.4225C14.0375 3.1475 13.43 2.75 12.5 2.75ZM12.5075 10.49C11 10.505 10.1225 11.6225 10.1225 13.055C10.1225 14.405 11.0075 16.49 12.3425 18.335L12.4925 18.5525L12.6275 18.3725C13.925 16.5875 14.8025 14.5775 14.8775 13.22V13.055C14.8775 11.63 14 10.505 12.5075 10.49Z" fill="#0A0A0A"/>
</svg>
