<svg width="25" height="25" viewBox="0 0 25 25" fill="none" xmlns="http://www.w3.org/2000/svg">
<path d="M10.0833 2.5374C9.25 2.69074 7.88889 3.96862 7.72222 4.78646C7.58333 5.34872 7.66667 5.4254 8.30556 5.4254C8.86111 5.4254 9.11111 5.24649 9.36111 4.65867C9.61111 4.01973 9.83333 3.89195 10.5556 3.89195C12.0833 3.89195 12.5 4.27531 12.5 5.68097V6.95885H7.5H2.5V7.72557V8.4923H7.5H12.5278L12.4444 10.4602C12.3611 12.2237 12.3056 12.4537 11.8056 12.5559C11.5 12.6071 10.9167 12.8626 10.5 13.1182C9.55556 13.7316 9.02778 13.7316 7.86111 13.0671C6.61111 12.3515 5.02778 12.3515 3.94444 13.0671C3.47222 13.3482 2.97222 13.6038 2.80556 13.6038C2.63889 13.6038 2.5 13.9105 2.5 14.2683C2.5 14.8817 2.58333 14.9072 3.25 14.7539C3.69444 14.6772 4.22222 14.4216 4.47222 14.2172C5.08333 13.7316 6.63889 13.7571 7.30556 14.2939C7.66667 14.6005 8.27778 14.7539 9.16667 14.7539C10.0556 14.7539 10.6667 14.6005 11.0278 14.2939C11.7222 13.7316 13.2778 13.7316 13.9722 14.3194C14.3333 14.6005 14.9444 14.7539 15.8333 14.7539C16.7222 14.7539 17.3333 14.6005 17.6944 14.3194C18.3611 13.7571 19.9167 13.7316 20.5278 14.2172C20.7778 14.4216 21.3056 14.6772 21.75 14.7539C22.4167 14.9072 22.5 14.8561 22.5 14.3194C22.5 13.8594 22.2222 13.5782 21.3333 13.1693C20.6667 12.8626 19.9167 12.5559 19.6667 12.4793C19.25 12.3515 19.1667 12.0192 19.1667 10.4091V8.4923H20.8333H22.5V7.72557C22.5 6.95885 22.5 6.95885 20.8611 6.95885H19.25L19.0833 5.68097C19 4.99092 18.7222 4.14752 18.4722 3.81527C17.5556 2.5374 15.4722 2.15404 14.0556 2.99743C13.4167 3.3808 13.25 3.40635 12.7222 3.07411C11.9444 2.61407 10.9167 2.40961 10.0833 2.5374ZM16.9722 4.14752C17.3889 4.35198 17.5 4.70979 17.5 5.68097V6.95885H15.8333H14.1667V5.91099C14.1667 4.45421 14.5556 3.89195 15.5833 3.89195C16.0556 3.89195 16.6667 4.01973 16.9722 4.14752ZM17.5 10.6902C17.5 12.5048 17.4167 12.9649 17.0278 13.246C16.3611 13.706 15.5278 13.6805 14.7778 13.1949C14.2222 12.8371 14.1667 12.5815 14.1667 10.6391V8.4923H15.8333H17.5V10.6902Z" fill="#0A0A0A"/>
<path d="M5.13889 16.364C4.83333 16.4151 4.25 16.6963 3.83333 16.9518C3.44444 17.233 2.97222 17.4374 2.80556 17.4374C2.63889 17.4374 2.5 17.7441 2.5 18.1019C2.5 18.7153 2.58333 18.7409 3.27778 18.5875C3.69444 18.5108 4.22222 18.2553 4.47222 18.0508C5.08333 17.5652 6.63889 17.5908 7.30556 18.1275C7.66667 18.4342 8.27778 18.5875 9.16667 18.5875C10.0556 18.5875 10.6667 18.4342 11.0278 18.1275C11.3333 17.8975 12 17.693 12.5 17.693C13 17.693 13.6667 17.8975 13.9722 18.1275C14.6944 18.7409 16.9722 18.7409 17.6944 18.1275C18.3611 17.5908 19.9167 17.5652 20.5278 18.0508C20.7778 18.2553 21.3056 18.5108 21.75 18.5875C22.4167 18.7409 22.5 18.6897 22.5 18.1786C22.5 17.7186 22.1667 17.4119 21.3333 16.9518C19.8889 16.1851 18.3889 16.1595 17.2778 16.9007C16.8056 17.1818 16.2222 17.4374 15.9722 17.4374C15.6944 17.4374 15.0556 17.1818 14.5278 16.9007C13.9722 16.594 13.1111 16.3384 12.5 16.3384C11.8611 16.3384 11.1111 16.5685 10.6111 16.9007C9.58333 17.5652 9.05556 17.5652 7.94444 16.9518C6.94444 16.3896 5.91667 16.1851 5.13889 16.364Z" fill="#0A0A0A"/>
<path d="M5.13889 20.1976C4.83333 20.2487 4.25 20.5299 3.83333 20.7854C3.44444 21.0666 2.97222 21.271 2.80556 21.271C2.63889 21.271 2.5 21.5777 2.5 21.9355C2.5 22.5489 2.58333 22.5745 3.27778 22.4211C3.69444 22.3445 4.22222 22.0889 4.47222 21.8844C5.08333 21.3988 6.63889 21.4244 7.30556 21.9611C7.66667 22.2678 8.27778 22.4211 9.16667 22.4211C10.0556 22.4211 10.6667 22.2678 11.0278 21.9611C11.7222 21.3988 13.2778 21.3988 13.9722 21.9611C14.6944 22.5745 16.9722 22.5745 17.6944 21.9866C18.3611 21.4244 19.9167 21.3988 20.5278 21.8844C20.7778 22.0889 21.3056 22.3445 21.75 22.4211C22.4167 22.5745 22.5 22.5234 22.5 22.0122C22.5 21.5522 22.1667 21.2455 21.3333 20.7854C19.8889 20.0187 18.3889 19.9932 17.2778 20.7343C16.8056 21.0155 16.2222 21.271 15.9722 21.271C15.6944 21.271 15.0556 21.0155 14.5278 20.7343C13.9722 20.4276 13.1111 20.1721 12.5 20.1721C11.8611 20.1721 11.1111 20.4021 10.6111 20.7343C9.58333 21.3988 9.05556 21.3988 7.94444 20.7854C6.94444 20.2232 5.91667 20.0187 5.13889 20.1976Z" fill="#0A0A0A"/>
</svg>
