<svg width="25" height="25" viewBox="0 0 25 25" fill="none" xmlns="http://www.w3.org/2000/svg">
<path opacity="0.915" fill-rule="evenodd" clip-rule="evenodd" d="M11.0393 4.57958C15.3716 4.07213 17.9559 5.99155 18.7921 10.3378C19.9906 11.2592 21.1891 12.1805 22.3876 13.1018C22.5375 13.4089 22.5375 13.716 22.3876 14.0231C21.3817 14.749 20.4453 15.5552 19.5786 16.4416C19.8121 17.2747 20.1117 18.0809 20.4775 18.8601C20.9815 19.0845 21.5058 19.1613 22.0506 19.0904C22.0506 19.5511 22.0506 20.0117 22.0506 20.4724C21.1486 20.5105 20.2497 20.4721 19.3539 20.3572C18.9045 19.2823 18.4551 18.2075 18.0056 17.1326C16.4344 17.0175 14.8613 16.9791 13.2865 17.0174C13.2865 18.1691 13.2865 19.3207 13.2865 20.4724C12.8371 20.4724 12.3876 20.4724 11.9382 20.4724C11.9382 19.3207 11.9382 18.1691 11.9382 17.0174C10.5071 16.9415 9.08393 17.0183 7.66854 17.2478C7.24991 18.2278 6.87537 19.2259 6.54494 20.2421C5.65834 20.4703 4.75946 20.5471 3.84831 20.4724C3.84831 20.0117 3.84831 19.5511 3.84831 19.0904C4.37265 19.0904 4.89701 19.0904 5.42135 19.0904C5.53207 18.3275 5.75679 17.5981 6.0955 16.9023C4.90434 15.8292 3.70584 14.7543 2.5 13.6776C3.67175 12.4599 4.94517 11.3466 6.32022 10.3378C6.85962 7.48513 8.43265 5.56572 11.0393 4.57958ZM12.3876 5.96156C14.9377 6.19636 16.5107 7.57835 17.1067 10.1075C14.1105 10.1075 11.1142 10.1075 8.11798 10.1075C8.67609 7.76913 10.0993 6.38715 12.3876 5.96156ZM7.44382 11.4895C10.8903 11.4511 14.336 11.4895 17.7809 11.6047C18.686 12.1458 19.51 12.7984 20.2528 13.5625C19.5424 14.2515 18.7933 14.9041 18.0056 15.5203C14.4101 15.6738 10.8146 15.6738 7.2191 15.5203C6.43139 14.9041 5.68234 14.2515 4.97191 13.5625C5.77038 12.8121 6.59436 12.1211 7.44382 11.4895Z" fill="#0A0A0A"/>
<path opacity="0.867" fill-rule="evenodd" clip-rule="evenodd" d="M8.11786 12.8714C9.16471 12.7596 9.46435 13.1819 9.01674 14.1383C7.94442 14.3249 7.64478 13.9026 8.11786 12.8714Z" fill="#0A0A0A"/>
<path opacity="0.867" fill-rule="evenodd" clip-rule="evenodd" d="M12.1628 12.8714C13.2096 12.7596 13.5093 13.1819 13.0617 14.1383C11.9893 14.3249 11.6897 13.9026 12.1628 12.8714Z" fill="#0A0A0A"/>
<path opacity="0.867" fill-rule="evenodd" clip-rule="evenodd" d="M16.2077 12.8714C17.2546 12.7596 17.5542 13.1819 17.1066 14.1383C16.0343 14.3249 15.7346 13.9026 16.2077 12.8714Z" fill="#0A0A0A"/>
</svg>
