<svg width="25" height="25" viewBox="0 0 25 25" fill="none" xmlns="http://www.w3.org/2000/svg">
<rect width="24" height="24" transform="translate(0.5 0.5)" fill="white"/>
<path d="M18.3621 20.9933L19.7414 22.3267V22.5H18.3621V20.9933ZM11.4655 14.3267L15.6034 18.3267V18.5C15.6034 20.68 14.1 22.5 12.1552 22.5C10.2103 22.5 8.7069 20.68 8.7069 18.5C8.7069 16.5867 9.86552 14.9467 11.4655 14.58V14.3267ZM2.5 5.66L3.87931 6.99333V14.5H6.63793L6.62414 13.86L6.60345 13.2267C6.56315 11.9104 6.44803 10.5973 6.25862 9.29333L7.83103 10.8133C7.94828 12.0267 8.01034 13.3667 8.01724 14.8333V15.8333H3.87931V22.5H2.5V5.66ZM4.01724 3.36667L21.9483 20.7L20.9828 21.6467L3.05172 4.31333L4.01724 3.36667ZM12.1552 15.8333C11.0517 15.8333 10.0862 17 10.0862 18.5C10.0862 20 11.0517 21.1667 12.1552 21.1667C13.2586 21.1667 14.2241 20 14.2241 18.5C14.2241 17 13.2586 15.8333 12.1552 15.8333ZM19.0517 2.5C19.5046 2.5 19.953 2.58622 20.3713 2.75374C20.7897 2.92125 21.1698 3.16678 21.49 3.47631C21.8102 3.78584 22.0642 4.1533 22.2375 4.55772C22.4108 4.96214 22.5 5.3956 22.5 5.83333V6.08L22.4862 6.57333C22.4624 7.39119 22.4003 8.20758 22.3 9.02L22.2379 9.49333L22.169 9.96L22.0862 10.4267L21.9966 10.8733L21.9 11.3133C21.4172 13.4133 20.6655 15.0667 19.7414 15.6267V16.6733L17.1966 14.2133C16.231 12.3533 15.631 9.15333 15.6103 6.06L15.6034 5.83333V5.68667C15.6426 4.82828 16.0231 4.01764 16.6655 3.4239C17.308 2.83016 18.1629 2.49917 19.0517 2.5ZM18.3621 3.94667C17.9778 4.0772 17.6419 4.31447 17.3966 4.62875C17.1512 4.94302 17.0072 5.32031 16.9828 5.71333V6.04C17.0172 8.92 17.6931 12.1267 18.3621 13.6333V3.94667ZM19.7414 3.94667V13.6333C20.4241 12.0933 21.1207 8.76667 21.1207 5.83333C21.1209 5.41957 20.9884 5.01592 20.7413 4.67801C20.4943 4.34011 20.1449 4.08459 19.7414 3.94667ZM12.8448 2.5V10.0067L11.4655 8.67333V2.5H12.8448Z" fill="#0A0A0A"/>
</svg>
