<svg width="25" height="25" viewBox="0 0 25 25" fill="none" xmlns="http://www.w3.org/2000/svg">
<path d="M21.7292 5.35714H13.2684V3.92857C13.2684 3.54969 13.1063 3.18633 12.8178 2.91842C12.5293 2.65051 12.138 2.5 11.73 2.5H2.5V22.5H4.03834V13.9286H11.73V15.3571C11.73 15.736 11.8921 16.0994 12.1806 16.3673C12.4691 16.6352 12.8604 16.7857 13.2684 16.7857H21.8215C21.933 16.7734 22.0401 16.7386 22.1356 16.6838C22.231 16.629 22.3123 16.5554 22.3739 16.4683C22.4355 16.3812 22.4757 16.2826 22.4919 16.1795C22.5081 16.0764 22.4998 15.9712 22.4676 15.8714L20.9908 11.0714L22.4676 6.27143C22.5011 6.16497 22.5074 6.05275 22.486 5.94365C22.4646 5.83455 22.4162 5.73157 22.3446 5.64286C22.2729 5.55415 22.18 5.48214 22.0732 5.43255C21.9664 5.38296 21.8487 5.35714 21.7292 5.35714Z" fill="#0A0A0A"/>
</svg>
