<svg width="25" height="25" viewBox="0 0 25 25" fill="none" xmlns="http://www.w3.org/2000/svg">
<path d="M10.5474 2.87891C8.11275 3.69338 6.06003 5.5085 5.05754 7.71921C4.12665 9.74376 3.88796 9.51106 8.20823 10.6281C10.3564 11.1865 12.2182 11.6985 12.3614 11.7683C12.5524 11.8614 12.2182 13.4671 11.2396 16.9111C10.4758 19.6571 9.85518 22.054 9.85518 22.1936C9.83131 22.3565 10.0939 22.4961 10.4042 22.4961C11.0248 22.4961 10.8815 22.8917 12.8388 15.7011C13.5071 13.1878 13.8651 12.257 14.1277 12.257C14.3187 12.257 16.2043 12.7224 18.3048 13.2809L22.1238 14.2816L22.3147 13.6765C22.625 12.6759 22.5295 9.88339 22.1476 8.67331C21.3361 6.1368 19.0447 3.83301 16.3952 2.92545C14.796 2.39022 12.075 2.34368 10.5474 2.87891ZM14.8438 3.78646C14.8438 4.11225 13.1013 10.3023 12.9581 10.4419C12.8865 10.535 12.1466 10.4419 11.3112 10.2324C10.2371 9.97647 9.83131 9.76704 9.83131 9.48779C9.83131 8.74312 11.4783 5.7412 12.4808 4.69402C13.2207 3.92609 13.6503 3.64684 14.1516 3.64684C14.5335 3.64684 14.8438 3.71665 14.8438 3.78646ZM11.2634 3.97263C11.2634 4.04244 10.8338 4.74056 10.3326 5.55504C9.80744 6.36951 9.21072 7.57959 8.94816 8.25444C8.54239 9.44125 8.49465 9.46452 7.80246 9.32489C6.63288 9.06891 6.01229 8.78967 6.01229 8.51042C6.01229 8.13809 7.32508 6.16008 7.87406 5.67139C8.35144 5.25252 10.7861 3.87955 11.0964 3.87955C11.1918 3.87955 11.2634 3.92609 11.2634 3.97263ZM16.9681 4.5544C17.4693 5.04308 17.9467 6.92801 17.9229 8.37079C17.9229 9.48779 17.6126 11.5123 17.4216 11.6752C17.3261 11.7683 14.5335 11.1633 14.1993 10.9771C14.1516 10.9538 14.4141 9.9532 14.7483 8.74312C16.1566 3.57703 16.1088 3.71665 16.9681 4.5544ZM19.9278 6.90474C20.2859 7.39342 20.7394 8.25444 20.9303 8.78967C21.3361 9.88339 21.4077 12.7224 21.0497 12.7224C20.9303 12.7224 20.3336 12.6061 19.7369 12.4432L18.6389 12.1639L18.8299 11.0935C18.9253 10.5117 19.0208 9.13873 19.0208 7.99846C18.997 6.88147 19.0447 5.97391 19.1402 5.97391C19.2118 5.97391 19.5459 6.39278 19.9278 6.90474Z" fill="#0A0A0A"/>
<path d="M4.8102 16.549C4.46892 16.6272 3.86512 16.9919 3.44508 17.4087C2.18497 18.6853 2.18497 20.3006 3.44508 21.5511C4.70519 22.8277 6.33284 22.8016 7.6192 21.525C9.71939 19.4408 7.77671 16.028 4.8102 16.549ZM6.59536 18.1903C7.14666 18.5029 7.27792 19.7274 6.83163 20.5611C6.5166 21.1082 5.28275 21.2385 4.44267 20.7956C3.89137 20.4829 3.76011 19.2585 4.2064 18.4248C4.52143 17.8777 5.75529 17.7474 6.59536 18.1903Z" fill="#0A0A0A"/>
</svg>
