<svg width="25" height="25" viewBox="0 0 25 25" fill="none" xmlns="http://www.w3.org/2000/svg">
<rect width="24" height="24" transform="translate(0.5 0.5)" fill="white"/>
<path d="M14.0632 2.94387C13.3046 3.40921 12.8448 4.0607 12.8448 4.66565C12.8448 5.2706 13.9713 5.13099 14.5 4.45624C15.0057 3.78149 15.9483 3.68842 16.546 4.24684C16.9138 4.57258 16.8678 4.66565 16.0402 5.45674C15.5115 5.96862 15.0747 6.6201 15.0057 7.06218C14.8678 7.78347 14.8908 7.83 15.5115 7.83C16.0402 7.83 16.2471 7.66713 16.523 7.06218C16.9828 6.06169 17.2586 6.13149 17.5115 7.24832C17.8333 8.76069 17.5805 11.2736 16.9368 12.879L16.3391 14.3449H17.0977C17.8103 14.3449 17.9023 14.2518 18.408 12.9953C18.8448 11.8785 18.9368 11.2503 18.9368 8.92357C18.9368 6.27109 18.9598 6.20129 19.3276 6.6899C19.5575 6.94584 19.7414 7.31812 19.7414 7.50426C19.7414 7.71367 19.9943 7.83 20.454 7.83C21.1437 7.83 21.1667 7.80673 21.0287 7.08545C20.8678 6.24782 19.9023 5.10773 19.0747 4.78198C18.6379 4.59584 18.592 4.50278 18.8218 4.22357C19.2816 3.66515 20.3391 3.80476 20.8448 4.45624C21.3966 5.15426 22.5 5.2706 22.5 4.61911C22.5 3.03693 20.0172 1.96664 18.3621 2.82753C17.7414 3.15327 17.6034 3.15327 16.9828 2.82753C16.0632 2.36218 14.9368 2.38545 14.0632 2.94387Z" fill="#0A0A0A"/>
<path d="M7.00575 4.61911C4.2931 6.13149 2.52299 8.27208 2.5 10.0869C2.5 10.785 2.56897 10.8548 3.18966 10.8548H3.85632L3.99425 14.9265H13.4195L13.5575 10.8548H14.2241C14.8448 10.8548 14.9138 10.785 14.9138 10.0869C14.8908 8.92357 14.1782 7.57406 12.9138 6.4107C11.7414 5.36367 9.25862 3.87456 8.68391 3.87456C8.5 3.87456 7.76437 4.22357 7.00575 4.61911ZM10.454 6.31763C11.8563 7.15525 13.3046 8.59782 13.3046 9.15624C13.3046 9.38891 12.3851 9.45871 8.7069 9.45871C3.44253 9.45871 3.41954 9.43545 5.12069 7.71367C6.13218 6.71317 8.04023 5.52654 8.72989 5.50327C8.91379 5.50327 9.6954 5.87555 10.454 6.31763ZM12.1552 13.6468H9.39655V12.9488C9.39655 12.3206 9.32759 12.2508 8.7069 12.2508C8.08621 12.2508 8.01724 12.3206 8.01724 12.9488V13.6468H5.25862V10.8548H12.1552V13.6468Z" fill="#0A0A0A"/>
<path d="M4.01724 17.0206C3.55747 17.3463 3.02874 17.6023 2.84483 17.6023C2.61494 17.6023 2.5 17.8349 2.5 18.3003C2.5 18.882 2.59195 18.9983 3.02874 18.9983C3.3046 18.9983 3.92529 18.7424 4.38506 18.4166C4.84483 18.0909 5.44253 17.8349 5.71839 17.8349C5.99425 17.8349 6.59195 18.0909 7.05172 18.4166C7.64943 18.8354 8.20115 18.9983 8.93678 18.9983C9.67241 18.9983 10.2241 18.8354 10.8218 18.4166C11.2816 18.0909 11.8793 17.8349 12.1552 17.8349C12.431 17.8349 13.0287 18.0909 13.4885 18.4166C14.0862 18.8354 14.6379 18.9983 15.3736 18.9983C16.1092 18.9983 16.6609 18.8354 17.2586 18.4166C18.3161 17.6953 18.8678 17.6953 19.9253 18.4166C20.3851 18.7424 21.0057 18.9983 21.2816 18.9983C21.7184 18.9983 21.8103 18.882 21.8103 18.3003C21.8103 17.8349 21.6954 17.6023 21.4655 17.6023C21.2816 17.6023 20.7529 17.3463 20.2931 17.0206C19.1897 16.2528 17.9943 16.2528 16.8908 17.0206C16.431 17.3463 15.7414 17.6023 15.3736 17.6023C15.0057 17.6023 14.3161 17.3463 13.8563 17.0206C13.3276 16.6483 12.6839 16.4389 12.1552 16.4389C11.6264 16.4389 10.9828 16.6483 10.454 17.0206C9.99425 17.3463 9.3046 17.6023 8.93678 17.6023C8.56897 17.6023 7.87931 17.3463 7.41954 17.0206C6.8908 16.6483 6.24713 16.4389 5.71839 16.4389C5.18966 16.4389 4.54598 16.6483 4.01724 17.0206Z" fill="#0A0A0A"/>
<path d="M4.01724 20.5106C3.55747 20.8364 3.02874 21.0923 2.84483 21.0923C2.61494 21.0923 2.5 21.325 2.5 21.7903C2.5 22.372 2.59195 22.4884 3.02874 22.4884C3.3046 22.4884 3.92529 22.2324 4.38506 21.9067C4.84483 21.5809 5.44253 21.325 5.71839 21.325C5.99425 21.325 6.59195 21.5809 7.05172 21.9067C8.20115 22.6978 9.67241 22.6978 10.8218 21.9067C11.2816 21.5809 11.8793 21.325 12.1552 21.325C12.431 21.325 13.0287 21.5809 13.4885 21.9067C14.0862 22.3255 14.6379 22.4884 15.3736 22.4884C16.1092 22.4884 16.6609 22.3255 17.2586 21.9067C18.3161 21.1854 18.8678 21.1854 19.9253 21.9067C20.3851 22.2324 21.0057 22.4884 21.2816 22.4884C21.7184 22.4884 21.8103 22.372 21.8103 21.7903C21.8103 21.325 21.6954 21.0923 21.4655 21.0923C21.2816 21.0923 20.7529 20.8364 20.2931 20.5106C19.1897 19.7428 17.9943 19.7428 16.8908 20.5106C15.8103 21.2552 14.9368 21.2552 13.8563 20.5106C12.7529 19.7428 11.5575 19.7428 10.454 20.5106C9.99425 20.8364 9.3046 21.0923 8.93678 21.0923C8.56897 21.0923 7.87931 20.8364 7.41954 20.5106C6.8908 20.1384 6.24713 19.929 5.71839 19.929C5.18966 19.929 4.54598 20.1384 4.01724 20.5106Z" fill="#0A0A0A"/>
</svg>
