<svg width="25" height="25" viewBox="0 0 25 25" fill="none" xmlns="http://www.w3.org/2000/svg">
<path d="M12.5 6.375L12.5 6.38375M12.5 12.5L12.5 12.5087M12.5 18.625L12.5 18.6337M12.5 7.25C11.9477 7.25 11.5 6.85825 11.5 6.375C11.5 5.89175 11.9477 5.5 12.5 5.5C13.0523 5.5 13.5 5.89175 13.5 6.375C13.5 6.85825 13.0523 7.25 12.5 7.25ZM12.5 13.375C11.9477 13.375 11.5 12.9832 11.5 12.5C11.5 12.0168 11.9477 11.625 12.5 11.625C13.0523 11.625 13.5 12.0168 13.5 12.5C13.5 12.9832 13.0523 13.375 12.5 13.375ZM12.5 19.5C11.9477 19.5 11.5 19.1082 11.5 18.625C11.5 18.1418 11.9477 17.75 12.5 17.75C13.0523 17.75 13.5 18.1418 13.5 18.625C13.5 19.1082 13.0523 19.5 12.5 19.5Z" stroke="#0A0A0A" stroke-width="2" stroke-linecap="round" stroke-linejoin="round"/>
</svg>
