<svg width="25" height="25" viewBox="0 0 25 25" fill="none" xmlns="http://www.w3.org/2000/svg">
<path d="M19.7 8.5H5.3C4.30589 8.5 3.5 9.26751 3.5 10.2143V18.7857C3.5 19.7325 4.30589 20.5 5.3 20.5H19.7C20.6941 20.5 21.5 19.7325 21.5 18.7857V10.2143C21.5 9.26751 20.6941 8.5 19.7 8.5Z" stroke="#0A0A0A" stroke-width="1.5" stroke-linecap="round" stroke-linejoin="round"/>
<path d="M16.5 20.5V6.27778C16.5 5.80628 16.2893 5.3541 15.9142 5.0207C15.5391 4.6873 15.0304 4.5 14.5 4.5H10.5C9.96957 4.5 9.46086 4.6873 9.08579 5.0207C8.71071 5.3541 8.5 5.80628 8.5 6.27778V20.5" stroke="#0A0A0A" stroke-width="1.5" stroke-linecap="round" stroke-linejoin="round"/>
</svg>
