<svg width="25" height="25" viewBox="0 0 25 25" fill="none" xmlns="http://www.w3.org/2000/svg">
<rect width="24" height="24" transform="translate(0.5 0.5)" fill="white"/>
<path d="M11.1944 19.8334V19.9667C11.1622 20.6281 10.8856 21.2539 10.4184 21.7221C9.95131 22.1904 9.32708 22.4677 8.66726 22.5H4.54404V21.1667H8.63401C8.95042 21.1422 9.24766 21.0051 9.47206 20.7801C9.69646 20.5552 9.83323 20.2572 9.85767 19.94L9.86433 19.8334H11.1944ZM8.53425 2.5002C8.89337 2.5002 9.24584 2.53353 9.58501 2.59353L9.83772 2.6402L21.4426 5.07351C21.7225 5.13272 21.9758 5.28079 22.1651 5.49575C22.3544 5.71071 22.4695 5.98111 22.4933 6.26683L22.5 6.37349V10.6268C22.499 10.9133 22.406 11.1918 22.2347 11.4212C22.0634 11.6505 21.8229 11.8185 21.549 11.9001L21.4426 11.9268L12.4314 13.8134L13.6018 18.1467C13.6543 18.3353 13.6648 18.5331 13.6324 18.7261C13.6001 18.9192 13.5257 19.1027 13.4146 19.2637C13.3035 19.4247 13.1584 19.5592 12.9897 19.6577C12.8209 19.7561 12.6325 19.8161 12.438 19.8334L12.3183 19.84H9.70472C9.43137 19.8399 9.16469 19.7554 8.94098 19.5979C8.71727 19.4405 8.54739 19.2177 8.45445 18.96L8.4212 18.86L7.17093 14.3534C5.72986 14.0282 4.45964 13.1804 3.60463 11.9729C2.74962 10.7655 2.37022 9.2837 2.53941 7.81271C2.70859 6.34172 3.41443 4.9854 4.52112 4.00468C5.62781 3.02395 7.05718 2.4881 8.53425 2.5002ZM12.325 18.5L11.1279 14.0868L9.92418 14.3401C9.55958 14.4259 9.18774 14.4772 8.81357 14.4934H8.59411L9.70472 18.5H12.325ZM8.53425 3.83352C7.88743 3.83628 7.24828 3.97413 6.65755 4.23828C6.06683 4.50244 5.53751 4.8871 5.10334 5.36773C4.66917 5.84836 4.33968 6.41442 4.13588 7.02981C3.93209 7.6452 3.85847 8.29641 3.9197 8.9419C3.98094 9.5874 4.1757 10.213 4.49155 10.7789C4.80741 11.3447 5.23743 11.8384 5.7542 12.2284C6.27096 12.6183 6.86313 12.8961 7.49293 13.0439C8.12274 13.1917 8.77635 13.2063 9.4121 13.0868L9.63156 13.0401L21.1699 10.6201V6.36683L9.55841 3.94685C9.22223 3.87136 8.87876 3.83336 8.53425 3.83352ZM8.53425 5.16684C9.41615 5.16684 10.2619 5.51803 10.8855 6.14314C11.5091 6.76826 11.8594 7.61609 11.8594 8.50014C11.8594 9.38419 11.5091 10.232 10.8855 10.8571C10.2619 11.4823 9.41615 11.8334 8.53425 11.8334C7.65236 11.8334 6.80659 11.4823 6.183 10.8571C5.55941 10.232 5.20908 9.38419 5.20908 8.50014C5.20908 7.61609 5.55941 6.76826 6.183 6.14314C6.80659 5.51803 7.65236 5.16684 8.53425 5.16684ZM8.53425 6.50016C8.00512 6.50016 7.49766 6.71087 7.1235 7.08594C6.74935 7.46101 6.53915 7.96971 6.53915 8.50014C6.53915 9.03057 6.74935 9.53927 7.1235 9.91434C7.49766 10.2894 8.00512 10.5001 8.53425 10.5001C9.06339 10.5001 9.57085 10.2894 9.94501 9.91434C10.3192 9.53927 10.5294 9.03057 10.5294 8.50014C10.5294 7.96971 10.3192 7.46101 9.94501 7.08594C9.57085 6.71087 9.06339 6.50016 8.53425 6.50016Z" fill="#0A0A0A"/>
</svg>
