<svg width="25" height="25" viewBox="0 0 25 25" fill="none" xmlns="http://www.w3.org/2000/svg">
<path d="M16.3929 16.3929L22.5 22.5M10.9643 18.4286C11.9445 18.4286 12.9151 18.2355 13.8207 17.8604C14.7264 17.4853 15.5492 16.9355 16.2423 16.2423C16.9355 15.5492 17.4853 14.7264 17.8604 13.8207C18.2355 12.9151 18.4286 11.9445 18.4286 10.9643C18.4286 9.98406 18.2355 9.01344 17.8604 8.10783C17.4853 7.20222 16.9355 6.37936 16.2423 5.68624C15.5492 4.99312 14.7264 4.4433 13.8207 4.06818C12.9151 3.69307 11.9445 3.5 10.9643 3.5C8.98463 3.5 7.08606 4.28641 5.68624 5.68624C4.28641 7.08606 3.5 8.98463 3.5 10.9643C3.5 12.9439 4.28641 14.8425 5.68624 16.2423C7.08606 17.6422 8.98463 18.4286 10.9643 18.4286Z" stroke="#0A0A0A" stroke-width="2"/>
</svg>
