<svg width="25" height="25" viewBox="0 0 25 25" fill="none" xmlns="http://www.w3.org/2000/svg">
<path d="M21.4995 5.50024V17.5002H19.356L19.861 17.1729C19.9822 17.0937 20.0464 16.9762 20.061 16.8406L20.0642 16.7814C20.0665 16.0699 18.8318 14.9445 17.3584 15.8195L17.262 15.8794L14.623 17.5002L13.496 17.5005C13.5817 16.9946 13.4127 16.546 13.0542 16.505L12.9999 16.502L3.49902 16.5017L3.49952 5.50024H21.4995Z" fill="black" fill-opacity="0.2"/>
<path d="M22.5 3.5C23.0272 3.5 23.4591 3.90794 23.4973 4.42537L23.5 4.5V18.5C23.5 19.0272 23.0921 19.4591 22.5746 19.4973L22.5 19.5H16.277L17.8165 18.5H22.5V4.5H2.5V16.5017C2.24358 16.5017 2.03225 16.6947 2.00336 16.9433L2 17.0017L1.99996 19.3662C1.72407 19.2066 1.53151 18.919 1.50352 18.5845L1.5 18.5V4.5C1.5 3.97282 1.90794 3.54092 2.42537 3.50274L2.5 3.5H22.5ZM12.5 8C14.433 8 16 9.567 16 11.5C16 13.433 14.433 15 12.5 15C10.567 15 9 13.433 9 11.5C9 9.567 10.567 8 12.5 8ZM12.5 9C11.1193 9 10 10.1193 10 11.5C10 12.8807 11.1193 14 12.5 14C13.8807 14 15 12.8807 15 11.5C15 10.1193 13.8807 9 12.5 9ZM5 6.5C5.27614 6.5 5.5 6.72386 5.5 7C5.5 7.27614 5.27614 7.5 5 7.5C4.72386 7.5 4.5 7.27614 4.5 7C4.5 6.72386 4.72386 6.5 5 6.5Z" fill="#0A0A0A"/>
<path d="M12.9999 16.5018C13.6857 16.5018 13.7549 17.9078 12.8157 18.6109L17.262 15.8792C18.7775 14.8952 20.0665 16.0542 20.0642 16.7812C20.0635 16.9417 19.9995 17.0822 19.861 17.1727L11.2438 22.7687C10.7702 23.0762 10.1886 23.1692 9.6427 23.0247L2.37205 21.1001C2.15274 21.0421 2 20.8437 2 20.6168V17.0017C2 16.7255 2.22386 16.5017 2.5 16.5017L12.9999 16.5018Z" stroke="#0A0A0A" stroke-width="1.5"/>
<path d="M7.5 19.002H11.5255C12.1596 19.002 12.6266 18.7956 12.9484 18.5015" stroke="#0A0A0A" stroke-width="1.5"/>
</svg>
