<svg width="25" height="25" viewBox="0 0 25 25" fill="none" xmlns="http://www.w3.org/2000/svg">
<rect width="24" height="24" transform="translate(0.5 0.5)" fill="white"/>
<path d="M5.25014 7.94531V8.05555V21.1667H3.96882V22.5H19.1311H19.237L17.9557 21.1667H6.53146V9.27919L5.25014 7.94531Z" fill="#0A0A0A"/>
<path d="M18.0633 15.865V15.6989V3.83334H6.53146V3.86502L5.60856 2.90465C5.82679 2.66886 6.12104 2.5246 6.43536 2.50001H18.0633C18.3871 2.49906 18.6993 2.62572 18.937 2.85453C19.1747 3.08334 19.3204 3.39733 19.3447 3.73334V16.8567V17.1983L18.0633 15.865Z" fill="#0A0A0A"/>
<path d="M16.5944 12.0286C16.4742 11.9036 16.3113 11.8333 16.1414 11.8333C15.9714 11.8333 15.8085 11.9036 15.6883 12.0286C15.5682 12.1536 15.5007 12.3232 15.5007 12.5C15.5007 12.6768 15.5682 12.8464 15.6883 12.9714C15.8085 13.0964 15.9714 13.1667 16.1414 13.1667C16.3113 13.1667 16.4742 13.0964 16.5944 12.9714C16.7145 12.8464 16.782 12.6768 16.782 12.5C16.782 12.3232 16.7145 12.1536 16.5944 12.0286Z" fill="#0A0A0A"/>
<path d="M3.5 4.12023L4.50958 3.06966L21.5 20.7498L20.4904 21.8003L3.5 4.12023Z" fill="#0A0A0A"/>
</svg>
