<svg width="25" height="25" viewBox="0 0 25 25" fill="none" xmlns="http://www.w3.org/2000/svg">
<path fill-rule="evenodd" clip-rule="evenodd" d="M9.47836 2.5H8.0827L8.08269 3.60122H3.791C3.45671 3.62498 3.14325 3.76157 2.90736 3.98512C2.67014 4.20813 2.52518 4.50476 2.5 4.82113L2.5 19.348C2.53958 20.1971 2.92458 20.9989 3.57469 21.5862C4.2248 22.1734 5.08979 22.5008 5.98919 22.5H19.0108C19.9102 22.5008 20.7752 22.1734 21.4253 21.5862C22.0754 20.9989 22.4604 20.1971 22.5 19.348L22.5 4.82113C22.4748 4.505 22.3301 4.20859 22.0932 3.98564C21.8572 3.76178 21.5435 3.625 21.209 3.60122H16.9173V2.5H15.5216V3.60122H9.47836V2.5ZM21.1043 8.87652H3.89567L3.89568 4.92005H8.08269L8.0827 6.01467H9.47836V4.92005H15.5216V6.01467H16.9173V4.92005H21.1043V8.87652ZM3.89992 19.2076C3.89896 19.7123 4.1022 20.1983 4.46804 20.566C4.83387 20.9338 5.33464 21.1555 5.86782 21.1858H19.1407C19.6738 21.1555 20.1746 20.9338 20.5404 20.566C20.9063 20.1983 21.1095 19.7123 21.1086 19.2076V10.2H3.89991L3.89992 19.2076Z" fill="#0A0A0A"/>
</svg>
