<svg width="25" height="25" viewBox="0 0 25 25" fill="none" xmlns="http://www.w3.org/2000/svg">
<path d="M9.47837 2.5V3.60122H15.5216V2.5H16.9173V3.60122H21.1043C21.457 3.60028 21.797 3.72557 22.056 3.95189C22.3149 4.17821 22.4735 4.48878 22.5 4.82113V15.4179C22.5006 15.726 22.3871 16.0247 22.179 16.262L22.0953 16.3477L15.9892 22.1175C15.7573 22.3372 15.4509 22.4727 15.1239 22.5H5.98919C5.08979 22.5008 4.2248 22.1734 3.57469 21.5862C2.92459 20.9989 2.53958 20.1971 2.50001 19.348V4.92005C2.49901 4.58675 2.6316 4.26546 2.87111 4.02079C3.11062 3.77612 3.43928 3.62622 3.791 3.60122H8.0827V2.5H9.47837ZM21.1043 10.1954H3.89568V19.2029C3.89472 19.7077 4.09796 20.1937 4.4638 20.5614C4.82963 20.9292 5.3304 21.1509 5.86358 21.1812H13.6654V17.4489C13.6645 16.599 14.011 15.7817 14.6325 15.1673C15.254 14.553 16.1025 14.1892 17.001 14.1518H21.1043V10.1954ZM21.0485 15.4707H17.1546C16.6204 15.4697 16.1061 15.6618 15.7169 16.0075C15.3277 16.3532 15.0931 16.8264 15.0611 17.3302V21.1284L21.0485 15.4707ZM8.0827 4.92005H3.89568V8.87652H21.1043V4.92005H16.9173V6.01467H15.5216V4.92005H9.47837V6.01467H8.0827V4.92005Z" fill="#0A0A0A"/>
</svg>
