<svg width="25" height="25" viewBox="0 0 25 25" fill="none" xmlns="http://www.w3.org/2000/svg">
<path d="M22.4738 4.80635C22.4313 4.62123 22.351 4.44603 22.2377 4.29082C22.1243 4.13561 21.9802 4.00346 21.8135 3.90195C21.6468 3.79872 21.4603 3.72835 21.265 3.69493C21.0697 3.66151 20.8695 3.6657 20.6759 3.70726L15.7723 4.75611L9.23424 3.5L3.67688 4.68702C3.34302 4.75727 3.04423 4.93513 2.83015 5.19105C2.61607 5.44697 2.49957 5.76555 2.50003 6.09386V19.8796C2.49849 20.1225 2.5613 20.3618 2.68253 20.5749C2.80377 20.7881 2.97946 20.9681 3.19306 21.098C3.35981 21.2013 3.54624 21.2716 3.74153 21.3051C3.93683 21.3385 4.13709 21.3343 4.33069 21.2927L9.23424 20.2439L15.7723 21.5L21.3231 20.313C21.657 20.2427 21.9558 20.0649 22.1699 19.8089C22.384 19.553 22.5005 19.2345 22.5 18.9061V5.12038C22.4989 5.01464 22.4858 4.90933 22.4608 4.80635H22.4738ZM10.215 18.768L9.22771 18.5796L8.25353 18.7805V5.37788L9.24078 5.17062L10.215 5.35904V18.7617V18.768ZM16.753 19.6221L15.7658 19.8294L14.7916 19.641V6.23203L15.7789 6.42045L16.753 6.21947H16.7596V19.6221H16.753Z" fill="#0A0A0A"/>
</svg>
