<svg width="25" height="25" viewBox="0 0 25 25" fill="none" xmlns="http://www.w3.org/2000/svg">
<rect width="24" height="24" transform="translate(0.5 0.5)" fill="white"/>
<path d="M18.25 2.50001C18.6291 2.49895 18.9945 2.63969 19.2728 2.89393C19.5511 3.14816 19.7216 3.49703 19.75 3.87038V5.10741L23.5 3.62593V12.4852L19.75 11.0037V12.1296C19.7511 12.504 19.6086 12.8649 19.3512 13.1398C19.0937 13.4146 18.7405 13.583 18.3625 13.6111H13.675C13.5265 14.3336 13.1632 14.9958 12.6314 15.5131C12.0996 16.0304 11.4236 16.3792 10.69 16.5148C10.5348 17.3379 10.1018 18.0848 9.46166 18.6337C8.8215 19.1825 8.01194 19.501 7.16501 19.537H4.00001V22.5H2.50001V15.0926H4.00001V18.0556H7C7.48269 18.0554 7.95251 17.9019 8.34011 17.6178C8.72771 17.3337 9.01253 16.934 9.1525 16.4778C8.45271 16.3176 7.81422 15.9623 7.31297 15.4541C6.81172 14.9459 6.4688 14.3062 6.32501 13.6111H4.00001C3.62093 13.6122 3.2555 13.4714 2.97722 13.2172C2.69894 12.963 2.52844 12.6141 2.50001 12.2407V3.98149C2.49894 3.60709 2.64144 3.24617 2.89885 2.97133C3.15626 2.69648 3.50949 2.52808 3.88751 2.50001H4.00001H18.25ZM10 10.6482C9.40327 10.6482 8.83097 10.8823 8.40901 11.299C7.98706 11.7158 7.75 12.281 7.75 12.8704C7.75 13.4597 7.98706 14.025 8.40901 14.4417C8.83097 14.8585 9.40327 15.0926 10 15.0926C10.5967 15.0926 11.169 14.8585 11.591 14.4417C12.013 14.025 12.25 13.4597 12.25 12.8704C12.25 12.281 12.013 11.7158 11.591 11.299C11.169 10.8823 10.5967 10.6482 10 10.6482ZM18.25 3.98149H4.00001V12.1296H6.32501C6.49714 11.2924 6.95705 10.5397 7.62681 9.99898C8.29657 9.45831 9.13499 9.16296 10 9.16296C10.865 9.16296 11.7034 9.45831 12.3732 9.99898C13.043 10.5397 13.5029 11.2924 13.675 12.1296H18.25V3.98149ZM22 5.81852L19.75 6.70741V9.40371L22 10.2926V5.81852ZM6.25001 5.46297C6.44892 5.46297 6.63968 5.54101 6.78033 5.67993C6.92099 5.81884 7 6.00725 7 6.20371C7 6.40017 6.92099 6.58858 6.78033 6.72749C6.63968 6.86641 6.44892 6.94445 6.25001 6.94445C6.05109 6.94445 5.86033 6.86641 5.71968 6.72749C5.57902 6.58858 5.50001 6.40017 5.50001 6.20371C5.50001 6.00725 5.57902 5.81884 5.71968 5.67993C5.86033 5.54101 6.05109 5.46297 6.25001 5.46297Z" fill="#0A0A0A"/>
</svg>
