<svg width="25" height="25" viewBox="0 0 25 25" fill="none" xmlns="http://www.w3.org/2000/svg">
<rect width="24" height="24" transform="translate(0.5 0.5)" fill="white"/>
<path d="M15 2.5V3.83333H13.125V5.16667H13.75C14.0659 5.16572 14.3704 5.29238 14.6023 5.52119C14.8342 5.75001 14.9763 6.06399 15 6.4V7.83333C15.6419 7.83248 16.2596 8.09505 16.725 8.56667C17.1904 9.03828 17.4679 9.68278 17.5 10.3667V19.8333C17.5008 20.5181 17.2546 21.1769 16.8125 21.6733C16.3704 22.1698 15.7661 22.4658 15.125 22.5H10C9.35806 22.5009 8.74041 22.2383 8.275 21.7667C7.80959 21.2951 7.5321 20.6505 7.5 19.9667V10.5C7.4992 9.81526 7.74536 9.15643 8.1875 8.66C8.62964 8.16356 9.23386 7.86757 9.875 7.83333H10V6.5C9.99911 6.16304 10.1179 5.83822 10.3324 5.59086C10.5469 5.34349 10.8412 5.19194 11.1563 5.16667H11.875V3.83333H7.5V2.5H15ZM16.25 16.5H8.75V19.8333C8.74911 20.1703 8.86786 20.4951 9.08237 20.7425C9.29688 20.9898 9.59124 21.1414 9.90625 21.1667H15C15.3159 21.1676 15.6204 21.0409 15.8523 20.8121C16.0842 20.5833 16.2263 20.2693 16.25 19.9333V19.8333V16.5ZM16.25 12.5H8.75V15.1667H16.25V12.5ZM15 9.16667H10C9.6841 9.16572 9.37958 9.29238 9.14768 9.52119C8.91578 9.75001 8.77369 10.064 8.75 10.4V11.1667H16.25V10.5C16.25 10.1464 16.1183 9.80724 15.8839 9.55719C15.6495 9.30714 15.3315 9.16667 15 9.16667ZM13.75 6.5H11.25V7.83333H13.75V6.5Z" fill="#0A0A0A"/>
</svg>
