<svg width="25" height="25" viewBox="0 0 25 25" fill="none" xmlns="http://www.w3.org/2000/svg">
<path d="M19.1667 2.5C20.0259 2.49914 20.8522 2.8406 21.4733 3.45313C22.0944 4.06566 22.4622 4.90194 22.5 5.78748V15.5674C22.5008 16.4538 22.1698 17.3063 21.5761 17.947C20.9824 18.5877 20.1717 18.9672 19.3133 19.0062H15.2733L12.5 22.5L9.72667 19.0062H5.83333C5.00013 19.0061 4.19717 18.6841 3.58266 18.1036C2.96815 17.5231 2.58666 16.7262 2.51333 15.87L2.5 15.7187V5.93879C2.49917 5.05239 2.83016 4.19989 3.4239 3.55917C4.01764 2.91845 4.82828 2.539 5.68667 2.5H5.83333H19.1667ZM19.1667 3.87552H5.83333C5.32305 3.87457 4.83172 4.07487 4.45991 4.43543C4.08811 4.79598 3.86395 5.28952 3.83333 5.81499V15.5674C3.83242 16.0938 4.02658 16.6007 4.37608 16.9843C4.72557 17.3678 5.20397 17.5991 5.71333 17.6307H10.3667L12.5 20.3267L14.6333 17.6307H19.1667C19.6769 17.6316 20.1683 17.4313 20.5401 17.0708C20.9119 16.7102 21.136 16.2167 21.1667 15.6912V5.93879C21.1676 5.41237 20.9734 4.90549 20.6239 4.52192C20.2744 4.13835 19.796 3.9071 19.2867 3.87552H19.1667Z" fill="#0A0A0A"/>
</svg>
