<svg width="25" height="25" viewBox="0 0 25 25" fill="none" xmlns="http://www.w3.org/2000/svg">
<rect width="24" height="24" transform="translate(0.5 0.5)" fill="white"/>
<path d="M13.3571 2.5V3.83333H8.60714V5.16667H9.28571C9.62869 5.16572 9.95931 5.29238 10.2111 5.52119C10.4629 5.75001 10.6171 6.06399 10.6429 6.4V7.9C11.3836 8.04774 12.053 8.43428 12.5447 8.99829C13.0364 9.56231 13.3224 10.2715 13.3571 11.0133V20.5C13.3581 21.0103 13.1604 21.5016 12.8047 21.8734C12.449 22.2452 11.962 22.4694 11.4436 22.5H4.53571C4.01632 22.5009 3.51621 22.3068 3.13777 21.9573C2.75932 21.6078 2.53116 21.1294 2.5 20.62V11.1667C2.49984 10.3982 2.76992 9.65334 3.26454 9.05806C3.75916 8.46279 4.44793 8.05369 5.21429 7.9V6.5C5.21332 6.16304 5.34225 5.83822 5.57515 5.59086C5.80804 5.34349 6.12763 5.19194 6.46964 5.16667H7.25V3.83333H5.21429V2.5H13.3571ZM12 12.54C11.2264 12.64 10.5886 12.94 9.57071 13.5733L9.34 13.7267C7.6775 14.7733 6.76821 15.1667 5.21429 15.1667C4.75775 15.1678 4.30252 15.1186 3.85714 15.02V20.5C3.85594 20.6638 3.91615 20.8223 4.02628 20.9452C4.13642 21.0682 4.28878 21.147 4.45429 21.1667H11.3214C11.4881 21.1678 11.6495 21.1087 11.7746 21.0005C11.8998 20.8923 11.98 20.7426 12 20.58V12.54ZM19.4643 10.5C20.0042 10.5 20.522 10.7107 20.9038 11.0858C21.2855 11.4609 21.5 11.9696 21.5 12.5C21.5 13.0304 21.2855 13.5391 20.9038 13.9142C20.522 14.2893 20.0042 14.5 19.4643 14.5C18.9244 14.5 18.4066 14.2893 18.0248 13.9142C17.643 13.5391 17.4286 13.0304 17.4286 12.5C17.4286 11.9696 17.643 11.4609 18.0248 11.0858C18.4066 10.7107 18.9244 10.5 19.4643 10.5ZM9.96429 9.16667H5.89286C5.37346 9.16575 4.87335 9.35991 4.49491 9.70941C4.11646 10.0589 3.88831 10.5373 3.85714 11.0467V13.64C4.29731 13.77 4.75466 13.8352 5.21429 13.8333C6.32036 13.8333 7.00571 13.5933 8.2 12.86L8.63429 12.5933C9.99821 11.7133 10.86 11.3067 12 11.2V11.1667C12 10.6362 11.7855 10.1275 11.4038 9.75245C11.022 9.37738 10.5042 9.16667 9.96429 9.16667ZM19.4643 11.8333C19.2843 11.8333 19.1117 11.9036 18.9845 12.0286C18.8572 12.1536 18.7857 12.3232 18.7857 12.5C18.7857 12.6768 18.8572 12.8464 18.9845 12.9714C19.1117 13.0964 19.2843 13.1667 19.4643 13.1667C19.6443 13.1667 19.8169 13.0964 19.9441 12.9714C20.0714 12.8464 20.1429 12.6768 20.1429 12.5C20.1429 12.3232 20.0714 12.1536 19.9441 12.0286C19.8169 11.9036 19.6443 11.8333 19.4643 11.8333ZM18.1071 3.16667C18.827 3.16667 19.5174 3.44762 20.0264 3.94772C20.5355 4.44781 20.8214 5.12609 20.8214 5.83333C20.8214 6.54058 20.5355 7.21885 20.0264 7.71895C19.5174 8.21905 18.827 8.5 18.1071 8.5C17.3873 8.5 16.6969 8.21905 16.1879 7.71895C15.6788 7.21885 15.3929 6.54058 15.3929 5.83333C15.3929 5.12609 15.6788 4.44781 16.1879 3.94772C16.6969 3.44762 17.3873 3.16667 18.1071 3.16667ZM9.28571 6.5H6.57143V7.83333H9.28571V6.5ZM18.1071 4.5C17.7472 4.5 17.402 4.64048 17.1475 4.89052C16.893 5.14057 16.75 5.47971 16.75 5.83333C16.75 6.18695 16.893 6.52609 17.1475 6.77614C17.402 7.02619 17.7472 7.16667 18.1071 7.16667C18.4671 7.16667 18.8123 7.02619 19.0668 6.77614C19.3213 6.52609 19.4643 6.18695 19.4643 5.83333C19.4643 5.47971 19.3213 5.14057 19.0668 4.89052C18.8123 4.64048 18.4671 4.5 18.1071 4.5Z" fill="#0A0A0A"/>
</svg>
