<svg width="25" height="25" viewBox="0 0 25 25" fill="none" xmlns="http://www.w3.org/2000/svg">
<path d="M18.1242 2.50001C18.4654 2.49901 18.7944 2.6316 19.0449 2.87111C19.2954 3.11062 19.4489 3.43928 19.4745 3.791V21.1043H21.5V22.5H3.5V21.1043H5.52551V3.89568C5.52455 3.54297 5.65283 3.20296 5.88456 2.94403C6.11629 2.6851 6.43427 2.52646 6.77457 2.50001H6.87584H18.1242ZM15.4235 3.89568H6.87584V21.1043H15.4235V3.89568ZM18.1242 3.89568H16.7738V21.1043H18.1242V3.89568ZM13.398 11.5719C13.5159 11.5719 13.6327 11.5959 13.7416 11.6425C13.8506 11.6892 13.9496 11.7575 14.0329 11.8437C14.1163 11.9299 14.1825 12.0322 14.2276 12.1448C14.2727 12.2574 14.2959 12.3781 14.2959 12.5C14.2959 12.6219 14.2727 12.7426 14.2276 12.8552C14.1825 12.9678 14.1163 13.0701 14.0329 13.1563C13.9496 13.2425 13.8506 13.3108 13.7416 13.3575C13.6327 13.4041 13.5159 13.4281 13.398 13.4281C13.1598 13.4281 12.9314 13.3303 12.763 13.1563C12.5946 12.9822 12.5 12.7462 12.5 12.5C12.5 12.2538 12.5946 12.0178 12.763 11.8437C12.9314 11.6697 13.1598 11.5719 13.398 11.5719Z" fill="#0A0A0A"/>
</svg>
