<svg width="25" height="25" viewBox="0 0 25 25" fill="none" xmlns="http://www.w3.org/2000/svg">
<rect width="24" height="24" transform="translate(0.5 0.5)" fill="white"/>
<path d="M11.7729 3.70256C11.4357 3.87287 9.20179 5.98046 6.82034 8.3861L2.5 12.7716L2.98472 13.2399C3.42729 13.687 3.46944 13.687 3.80664 13.3464C4.14384 13.0271 4.18599 13.0483 4.41781 13.7722C4.60748 14.3257 4.62856 14.6663 4.45996 14.9643C4.35458 15.1772 4.31243 15.8159 4.37566 16.3694C4.52318 17.5616 4.52318 17.7106 4.37566 19.0944C4.27028 20.1375 4.29136 20.2652 4.88145 20.8613L5.5137 21.5H12.5105H19.5074L20.1396 20.8613C20.7297 20.2652 20.7508 20.1375 20.6454 19.0944C20.4979 17.7106 20.4979 17.5616 20.6454 16.3694C20.7086 15.8159 20.6665 15.1772 20.5611 14.9643C20.3925 14.6663 20.4136 14.3257 20.6033 13.7722C20.8351 13.0483 20.8772 13.0271 21.2144 13.3464C21.5516 13.687 21.5938 13.687 22.0364 13.2399L22.5 12.7716L21.6149 11.8562L20.7297 10.9408V7.91774V4.89473H20.0975H19.4652V7.27908V9.66342L16.4515 6.64041C14.7866 4.97989 13.3325 3.6174 13.206 3.6174C13.0796 3.6174 12.8477 3.57483 12.6791 3.51096C12.5316 3.46838 12.1312 3.55354 11.7729 3.70256ZM14.0911 6.17206L15.3346 7.44939H12.5105H9.68651L10.9299 6.17206C11.6254 5.46953 12.3209 4.89473 12.5105 4.89473C12.7002 4.89473 13.3957 5.46953 14.0911 6.17206ZM17.5685 9.68471L18.4958 10.6427H12.5105H6.52529L7.45258 9.68471L8.37987 8.72672H12.5105H16.6412L17.5685 9.68471ZM19.3809 12.431C19.676 13.6019 19.5074 13.7296 17.5053 13.7935C16.1143 13.836 15.5453 13.7722 15.2081 13.5167C14.5548 13.0696 10.4663 13.0483 9.85511 13.5167C9.26502 13.9638 5.8509 13.9638 5.6823 13.4954C5.47155 12.9419 5.53477 12.1755 5.82982 12.0691C5.95627 12.0052 9.05427 11.9413 12.6581 11.9413L19.2545 11.92L19.3809 12.431ZM14.4073 17.3487V20.2227H12.5105H10.6138V17.3487V14.4747H12.5105H14.4073V17.3487ZM9.34931 16.0714V17.0294H7.57903C5.70337 17.0294 5.55585 16.9442 5.55585 15.8585C5.55585 15.2198 5.74552 15.1559 7.72655 15.1346L9.34931 15.1134V16.0714ZM19.3809 15.6243C19.676 16.7952 19.5074 16.9229 17.5053 16.9868L15.6718 17.0506V16.0714V15.1134H17.4631C19.1702 15.1134 19.2545 15.1346 19.3809 15.6243ZM9.34931 19.2647V20.2227H7.57903C5.70337 20.2227 5.55585 20.1375 5.55585 19.0518C5.55585 18.4131 5.74552 18.3493 7.72655 18.328L9.34931 18.3067V19.2647ZM19.3809 18.8176C19.676 19.9885 19.5074 20.1162 17.5053 20.1801L15.6718 20.244V19.2647V18.3067H17.4631C19.1702 18.3067 19.2545 18.328 19.3809 18.8176Z" fill="#0A0A0A"/>
</svg>
