<svg width="25" height="25" viewBox="0 0 25 25" fill="none" xmlns="http://www.w3.org/2000/svg">
<rect width="24" height="24" transform="translate(0.5 0.5)" fill="white"/>
<path d="M18.3846 2.50001C18.7151 2.49906 19.0337 2.62572 19.2763 2.85453C19.5189 3.08334 19.6675 3.39733 19.6923 3.73334V21.1667H21V22.5H4V21.1667H5.30769V3.83334C5.30676 3.49638 5.43099 3.17156 5.6554 2.92419C5.87981 2.67683 6.18776 2.52528 6.51731 2.50001H6.61538H18.3846ZM18.3846 3.83334H6.61538V21.1667H18.3846V3.83334ZM12.5 7.83334C13.0005 7.83242 13.4824 8.02658 13.847 8.37608C14.2117 8.72558 14.4315 9.20397 14.4615 9.71334V11.1667C15.0105 11.5864 15.4159 12.1717 15.6205 12.8394C15.8251 13.5072 15.8184 14.2237 15.6015 14.8874C15.3845 15.5511 14.9682 16.1284 14.4116 16.5375C13.8549 16.9465 13.1862 17.1667 12.5 17.1667C11.8138 17.1667 11.1451 16.9465 10.5884 16.5375C10.0318 16.1284 9.61552 15.5511 9.39854 14.8874C9.18155 14.2237 9.17489 13.5072 9.37947 12.8394C9.58406 12.1717 9.98954 11.5864 10.5385 11.1667V9.83334C10.5385 9.3029 10.7451 8.7942 11.113 8.41912C11.4808 8.04405 11.9798 7.83334 12.5 7.83334ZM12.5 11.8333C11.9798 11.8333 11.4808 12.044 11.113 12.4191C10.7451 12.7942 10.5385 13.3029 10.5385 13.8333C10.5385 14.3638 10.7451 14.8725 11.113 15.2475C11.4808 15.6226 11.9798 15.8333 12.5 15.8333C13.0202 15.8333 13.5192 15.6226 13.887 15.2475C14.2549 14.8725 14.4615 14.3638 14.4615 13.8333C14.4615 13.3029 14.2549 12.7942 13.887 12.4191C13.5192 12.044 13.0202 11.8333 12.5 11.8333ZM12.5 13.1667C12.6734 13.1667 12.8397 13.2369 12.9623 13.3619C13.085 13.487 13.1538 13.6565 13.1538 13.8333C13.1538 14.0101 13.085 14.1797 12.9623 14.3047C12.8397 14.4298 12.6734 14.5 12.5 14.5C12.3266 14.5 12.1603 14.4298 12.0377 14.3047C11.915 14.1797 11.8462 14.0101 11.8462 13.8333C11.8462 13.6565 11.915 13.487 12.0377 13.3619C12.1603 13.2369 12.3266 13.1667 12.5 13.1667ZM12.5 9.16667C12.3394 9.16549 12.1839 9.22464 12.0633 9.33284C11.9427 9.44105 11.8654 9.59073 11.8462 9.75334V10.5667C12.2776 10.4772 12.7224 10.4772 13.1538 10.5667V9.83334C13.1538 9.65653 13.085 9.48696 12.9623 9.36193C12.8397 9.23691 12.6734 9.16667 12.5 9.16667Z" fill="#0A0A0A"/>
</svg>
