<svg width="25" height="25" viewBox="0 0 25 25" fill="none" xmlns="http://www.w3.org/2000/svg">
<rect width="24" height="24" transform="translate(0.5 0.5)" fill="white"/>
<path d="M21.0714 2.50001C21.4325 2.49899 21.7805 2.6347 22.0455 2.87986C22.3105 3.12501 22.4729 3.46142 22.5 3.82143V21.0714C22.501 21.4325 22.3653 21.7805 22.1201 22.0455C21.875 22.3105 21.5386 22.4729 21.1786 22.5H3.92858C3.56755 22.501 3.21952 22.3653 2.95449 22.1201C2.68946 21.875 2.52708 21.5386 2.50001 21.1786V3.92858C2.49899 3.56755 2.6347 3.21952 2.87986 2.95449C3.12501 2.68946 3.46142 2.52708 3.82143 2.50001H3.92858H21.0714ZM11.7857 10.3571H7.5V16.0714H3.92858V21.0714H21.0714V16.0714H18.9286V18.9286H11.7857V10.3571ZM9.64286 17.5C9.8323 17.5 10.014 17.5753 10.1479 17.7092C10.2819 17.8432 10.3571 18.0248 10.3571 18.2143C10.3571 18.4037 10.2819 18.5854 10.1479 18.7194C10.014 18.8533 9.8323 18.9286 9.64286 18.9286C9.45342 18.9286 9.27174 18.8533 9.13778 18.7194C9.00383 18.5854 8.92857 18.4037 8.92857 18.2143C8.92857 18.0248 9.00383 17.8432 9.13778 17.7092C9.27174 17.5753 9.45342 17.5 9.64286 17.5ZM21.0714 3.92858H3.92858V14.6429H6.07143V10.3571C6.07042 9.99612 6.20613 9.64809 6.45128 9.38306C6.69644 9.11803 7.03285 8.95565 7.39286 8.92857H11.7857C12.1467 8.92756 12.4948 9.06327 12.7598 9.30843C13.0248 9.55358 13.1872 9.88999 13.2143 10.25V17.5H17.5V16.0714C17.499 15.7104 17.6347 15.3624 17.8798 15.0973C18.125 14.8323 18.4614 14.6699 18.8214 14.6429H21.0714V3.92858ZM9.64286 14.6429C9.8323 14.6429 10.014 14.7181 10.1479 14.8521C10.2819 14.986 10.3571 15.1677 10.3571 15.3571C10.3571 15.5466 10.2819 15.7283 10.1479 15.8622C10.014 15.9962 9.8323 16.0714 9.64286 16.0714C9.45342 16.0714 9.27174 15.9962 9.13778 15.8622C9.00383 15.7283 8.92857 15.5466 8.92857 15.3571C8.92857 15.1677 9.00383 14.986 9.13778 14.8521C9.27174 14.7181 9.45342 14.6429 9.64286 14.6429ZM9.64286 11.7857C9.8323 11.7857 10.014 11.861 10.1479 11.9949C10.2819 12.1289 10.3571 12.3106 10.3571 12.5C10.3571 12.6894 10.2819 12.8711 10.1479 13.0051C10.014 13.139 9.8323 13.2143 9.64286 13.2143C9.45342 13.2143 9.27174 13.139 9.13778 13.0051C9.00383 12.8711 8.92857 12.6894 8.92857 12.5C8.92857 12.3106 9.00383 12.1289 9.13778 11.9949C9.27174 11.861 9.45342 11.7857 9.64286 11.7857ZM16.7857 6.07143C17.354 6.07143 17.8991 6.2972 18.3009 6.69906C18.7028 7.10092 18.9286 7.64597 18.9286 8.21429C18.9286 8.78261 18.7028 9.32765 18.3009 9.72952C17.8991 10.1314 17.354 10.3571 16.7857 10.3571C16.2174 10.3571 15.6723 10.1314 15.2705 9.72952C14.8686 9.32765 14.6429 8.78261 14.6429 8.21429C14.6429 7.64597 14.8686 7.10092 15.2705 6.69906C15.6723 6.2972 16.2174 6.07143 16.7857 6.07143ZM16.7857 7.5C16.5963 7.5 16.4146 7.57526 16.2806 7.70921C16.1467 7.84317 16.0714 8.02485 16.0714 8.21429C16.0714 8.40373 16.1467 8.58541 16.2806 8.71936C16.4146 8.85332 16.5963 8.92857 16.7857 8.92857C16.9752 8.92857 17.1568 8.85332 17.2908 8.71936C17.4247 8.58541 17.5 8.40373 17.5 8.21429C17.5 8.02485 17.4247 7.84317 17.2908 7.70921C17.1568 7.57526 16.9752 7.5 16.7857 7.5Z" fill="#0A0A0A"/>
</svg>
