<svg width="25" height="25" viewBox="0 0 25 25" fill="none" xmlns="http://www.w3.org/2000/svg">
<rect width="24" height="24" transform="translate(0.5 0.5)" fill="white"/>
<path d="M19.1667 3C19.2975 3.0001 19.4255 3.03806 19.5345 3.10912C19.6436 3.18019 19.729 3.28123 19.78 3.39966L19.8067 3.47828L21.14 8.06448C21.1657 8.15569 21.1709 8.25128 21.1554 8.34467C21.1399 8.43806 21.104 8.52704 21.0501 8.60549C20.9963 8.68394 20.9258 8.74999 20.8435 8.7991C20.7612 8.84822 20.669 8.87923 20.5733 8.89L20.5 8.89655H18.5V12.1724H22.5V13.4828H21.1667V22H19.8333V20.3359C19.4811 20.5371 19.0865 20.6559 18.68 20.6831L18.5 20.6897H6.5C6.03157 20.6895 5.57154 20.5674 5.16667 20.3359V22H3.83333V13.4828H2.5V12.1724H5.83333V9.55172C5.83215 9.39076 5.8913 9.23501 5.99951 9.11417C6.10771 8.99333 6.25739 8.91586 6.42 8.89655H6.66L5.89333 7.1931L7.10667 6.66897L8.12 8.89655H9.83333C9.99712 8.89539 10.1556 8.95352 10.2786 9.05986C10.4015 9.1662 10.4803 9.3133 10.5 9.4731V12.1724H17.1667V8.89655H15.1667C15.0699 8.89683 14.9743 8.87641 14.8864 8.83672C14.7985 8.79703 14.7204 8.73901 14.6576 8.6667C14.5949 8.59439 14.5488 8.50951 14.5227 8.41797C14.4967 8.32642 14.4912 8.23039 14.5067 8.13655L14.5267 8.06448L15.86 3.47828C15.8958 3.35422 15.968 3.24329 16.0676 3.15937C16.1672 3.07546 16.2898 3.0223 16.42 3.00655L16.5 3H19.1667ZM19.8333 13.4828H5.16667V18.069C5.16625 18.3827 5.2804 18.6862 5.48838 18.9243C5.69636 19.1623 5.98435 19.3191 6.3 19.3662L6.4 19.3728L6.5 19.3793H18.5C18.837 19.3802 19.1618 19.2558 19.4091 19.0309C19.6565 18.806 19.8081 18.4975 19.8333 18.1672V13.4828ZM9.16667 10.2069H7.16667V12.1724H9.16667V10.2069ZM18.66 4.31034H17L16.0467 7.58621H19.6133L18.66 4.31034Z" fill="#0A0A0A"/>
</svg>
