<svg width="25" height="25" viewBox="0 0 25 25" fill="none" xmlns="http://www.w3.org/2000/svg">
<path d="M12.5 4C14.0913 4 15.6174 4.63214 16.7426 5.75736C17.8679 6.88258 18.5 8.4087 18.5 10C18.5 17 21.5 19 21.5 19H3.5C3.5 19 6.5 17 6.5 10C6.5 8.4087 7.13214 6.88258 8.25736 5.75736C9.38258 4.63214 10.9087 4 12.5 4ZM12.5 4V3" stroke="#0A0A0A" stroke-width="1.5" stroke-linecap="round" stroke-linejoin="round"/>
<path d="M15 19.5C14.8242 19.8031 14.6453 21.0686 13.4978 21.7295C13.1941 21.9044 12.8499 21.9965 12.4995 21.9965C12.1492 21.9965 11.8049 21.9044 11.5013 21.7295C10.6847 21.2592 10.1758 19.8031 10 19.5" stroke="#0A0A0A" stroke-width="1.5" stroke-linecap="round" stroke-linejoin="round"/>
</svg>
