<svg width="25" height="25" viewBox="0 0 25 25" fill="none" xmlns="http://www.w3.org/2000/svg">
<path d="M5.01992 2.71741C3.5776 3.19739 3.05538 3.72308 2.60776 5.16302C2.40882 5.78014 2.43369 5.82585 3.12998 5.82585C3.70194 5.82585 3.85114 5.71157 3.85114 5.36873C3.85114 5.09445 4.12469 4.63733 4.47283 4.3402C5.16913 3.67737 6.71092 3.56309 7.48182 4.11164C7.95431 4.45448 7.95431 4.47734 7.48182 4.75161C5.81569 5.73442 5.16913 6.48868 4.82098 7.81433C4.64691 8.52287 4.69664 8.56858 5.36807 8.56858C5.96489 8.56858 6.08923 8.47716 6.08923 8.02004C6.08923 7.70005 6.38764 7.1515 6.73579 6.76295C7.50669 5.91727 8.12838 5.82585 7.97917 6.55724C7.63103 8.0886 7.63103 8.68286 7.85484 9.87138C8.00404 10.6028 8.27759 11.4485 8.45166 11.7684C8.77494 12.3398 8.75007 12.3856 7.68076 12.8884C6.31304 13.5741 5.3432 14.7397 4.92045 16.2025C4.59717 17.3453 4.09982 17.9396 3.42839 17.9396C3.25432 17.9396 3.10511 18.191 3.10511 18.511C3.10511 19.2195 3.6522 19.2652 4.79611 18.6253C5.81569 18.0539 6.86013 18.0539 7.8797 18.6253C8.92415 19.1967 10.2173 19.1967 11.2617 18.6253C12.2813 18.0539 13.3257 18.0539 14.3453 18.6253C14.7929 18.8767 15.5638 19.0824 16.0363 19.0824C16.5088 19.0824 17.2797 18.8767 17.7273 18.6253C18.1749 18.3739 18.8712 18.1682 19.2691 18.1682C19.667 18.1682 20.3633 18.3739 20.8109 18.6253C21.9051 19.2424 22.5019 19.2195 22.5019 18.5567C22.5019 18.2139 22.2283 17.9396 21.6813 17.711C21.1093 17.4596 20.8606 17.1625 20.7363 16.5911C20.2887 14.6026 17.8765 13.1398 15.7379 13.5969C15.0665 13.7341 14.7432 13.6426 14.0469 13.1627C13.5744 12.8427 12.4554 12.4084 11.5601 12.2256C10.1427 11.9056 9.89398 11.7684 9.52097 11.0828C9.22256 10.5571 9.07335 9.7571 9.07335 8.77429C9.07335 6.5801 9.27229 5.82585 9.86912 5.82585C10.5903 5.82585 12.0575 7.26578 12.0575 7.97432C12.0575 8.47716 12.1569 8.56858 12.7786 8.56858C13.4501 8.56858 13.4998 8.52287 13.3257 7.81433C12.9776 6.44296 12.1818 5.55157 10.7146 4.86589L9.99345 4.52305L10.5903 4.15735C11.4855 3.56309 12.9527 3.65452 13.6739 4.3402C14.022 4.63733 14.2956 5.09445 14.2956 5.36873C14.2956 5.71157 14.4448 5.82585 15.0167 5.82585C15.713 5.82585 15.7379 5.80299 15.5389 5.11731C14.7929 2.71741 12.1818 1.82603 9.96859 3.19739L9.07335 3.74594L8.17812 3.19739C7.68076 2.87741 7.10881 2.62599 6.93473 2.62599C6.76066 2.62599 6.48711 2.58028 6.28817 2.51171C6.1141 2.466 5.54214 2.55742 5.01992 2.71741ZM12.8035 13.8255C13.3257 14.0769 13.9225 14.4883 14.1215 14.7626C14.4199 15.1511 14.594 15.1969 14.9919 14.9912C15.2903 14.854 16.0363 14.7397 16.658 14.7397C17.6527 14.7397 17.9511 14.854 18.6723 15.5168C19.1448 15.9511 19.5178 16.4082 19.5178 16.5454C19.5178 16.6596 19.095 16.8882 18.5977 17.0253C18.0754 17.1625 17.4289 17.4139 17.1802 17.5967C16.4839 18.0767 15.6135 18.031 14.6188 17.4596C14.1215 17.1853 13.3506 16.9568 12.8035 16.9568C12.2564 16.9568 11.4855 17.1853 10.9882 17.4596C9.99345 18.031 9.12309 18.0767 8.42679 17.5967C8.17812 17.4139 7.53156 17.1625 7.0342 17.0253C5.94003 16.7511 5.89029 16.5454 6.66119 15.3111C7.78023 13.5055 10.64 12.797 12.8035 13.8255Z" fill="#0A0A0A"/>
<path d="M5.46765 20.5452C3.3539 21.3223 3.10522 21.4823 3.10522 21.9851C3.10522 22.648 3.70205 22.6708 4.79623 22.0537C5.24384 21.8023 5.94014 21.5966 6.33802 21.5966C6.7359 21.5966 7.4322 21.8023 7.87982 22.0537C8.92426 22.6251 10.2174 22.6251 11.2618 22.0537C11.7094 21.8023 12.4057 21.5966 12.8036 21.5966C13.2015 21.5966 13.8978 21.8023 14.3454 22.0537C15.3898 22.6251 16.683 22.6251 17.7274 22.0537C18.747 21.4823 19.7914 21.4823 20.811 22.0537C21.9052 22.6708 22.502 22.648 22.502 21.9851C22.4771 21.6194 22.1787 21.3452 21.2337 20.9337C19.7417 20.2481 18.5729 20.2481 17.4539 20.888C16.3846 21.5051 15.6883 21.4823 14.619 20.888C13.4999 20.2481 12.1073 20.2481 10.9883 20.888C9.94383 21.4823 9.24754 21.5051 8.22796 20.9337C7.13379 20.3395 6.33802 20.2252 5.46765 20.5452Z" fill="#0A0A0A"/>
</svg>
